<svg xmlns="http://www.w3.org/2000/svg" xmlns:xlink="http://www.w3.org/1999/xlink" viewBox="0 0 387 188"><style><![CDATA[.S{fill:none}.T{stroke-miterlimit:10}.U{enable-background:new}.V{stroke:#000}]]></style><path d="M328.4 66.5c-.6 1.1 0 2.2.9 2.9s2.5 1.4 3.5.4c1.2-1.2-.1-2.6-1.2-3.1-.8-.4-2.1-.8-3-.5-.9.4-1.6 1.7-.7 2.5.8.6 1.9 1 2.9 1.1 1.5.1 2.1-2.1.8-2.8-1.3-.6-3.1-1.6-4.5-.8-.7.4-.9 1.3-.5 2.1s1.2 1 2 1.1c1.5.1 2-2.1.8-2.8-.6-.4-1.5-.5-2.2-.5s-1.4.2-1.7 1c-.6 1.4.8 2.4 2 2.4l-.8-2.8c.5-.1.6-.1.3-.1h-1c-.4-.1-.6-.5-.8-.8.1.4.3.7.4 1.1v-.1c-.1.4-.3.7-.4 1.1.6-.5 1-1 1.7-1.3 1-.4 1.9 0 3 .1 1 .2 1.8.8 2.7 1.2 1 .5 2.1.8 3.1 1.2l1.2-2.7c-.2 0 .1.1 0 0-.2-.1-.3-.1-.5-.2-.4-.1-.8-.3-1.2-.5-.6-.3-1.3-.6-1.9-.8.2.1.4.3.7.4 0 0 0 .1.1.1l-.9 2.2c-.3 0-.3 0 0 .1.1 0 .2.1.3.1l.6.3 1.4.6c.9.4 1.7.6 2.2 1.4-.1-.2-.3-.4-.4-.7a.9.9 0 0 1 .1.5c.1.2.1.5.1.1.1-.2.3-.4.4-.7l-.2.2c.2-.1.4-.3.7-.4-.8.3-1.9.2-2.8.1l-3.2-.2-3-.3c-.9-.1-2-.4-2.8-1l.4.4c.1.4.1.8.2 1.2 0-.1 0-.2.1-.2-.2.3-.5.6-.7.9 0 0 .1 0 .1-.1-.3.1-.5.1-.8.2l1.9-.4 2.4-.2h2.3c.4 0 .9 0 1.3.1h.5c.2 0-.3-.1.1.1-.2-.1-.4-.3-.7-.4l.1.1c-.1-.2-.3-.4-.4-.7v.1-.7c.2-.3.5-.6.7-.9h.2-.5c-.2 0-.5-.1-.7-.1-.7-.1-1.5-.2-2.2-.2-.7-.1-1.3-.2-2-.2-.3 0-.6-.1-.9-.1-.2 0-.3 0-.5-.1-.3-.1-.3 0-.1.1l.5.5c0 .1.1.2.1.3-.1.3-.1.5-.2.8-.2.3.3 0 .5 0 .4-.1.8-.1 1.2 0 .8 0 1.6.2 2.4.4 1.9.5 2.7-2.4.8-2.9-2-.5-4.6-1-6.5 0-1 .6-1.5 1.7-1 2.8.6 1.1 1.9 1 3 1.1l3.4.4c1 .1 2.2.4 3.2.2s1.8-1.2 1.4-2.2c-.4-1.2-1.6-1.3-2.7-1.4-2.3-.2-4.6-.1-6.9.2-.9.1-2.1.3-2.4 1.4-.4 1.3.5 2.1 1.6 2.5.9.4 1.8.7 2.7.8 1.1.2 2.3.2 3.5.4l2.9.2c1.1.1 2.1.2 3.1 0 .7-.1 1.3-.2 1.8-.7s.5-1.2.4-1.8c-.3-1.1-.8-2-1.7-2.6-.5-.3-1-.5-1.5-.7l-1.4-.6c-1.1-.4-2.3-1.2-3.5-.8-1 .3-1.3 1.3-.9 2.2.1.2.2.4.4.5.1.1.3.2.5.3s.2.1.1 0l1.4.6c.5.2 1 .5 1.5.6.1 0 .1 0 .2.1-.1-.1-.1-.1 0 0 .2.1.4.2.6.2.7.2 1.5-.2 1.8-.9.3-.6.1-1.6-.6-1.9l-2.8-1.1c-.9-.4-1.7-1-2.7-1.4-.8-.3-1.8-.5-2.7-.6-1.1-.2-2.2-.1-3.3.3-.8.3-1.5.9-2.1 1.4-.9.8-1.3 1.8-.4 2.8.6.7 1.4 1.3 2.4 1.5.7.1 2.1.2 2.7-.3 1.2-.8.8-2.8-.8-2.8-.1 0-.1 0 .1 0-.2-.1-.2-.1 0 0l.5.5v-.1c.1.4.1.8.2 1.2v-.1l-1 1c-.2.1-.1 0 .1 0 .1 0 .4 0 .6.1l.8-2.8h.1l.5.5s0-.1-.1-.1l-.5 2.1c-.2.1-.7 0-.2.2.2.1.4.1.6.2.3.1.7.3 1 .4l.8-2.8-.7-.2-.7 2.5c-.3.1-.1 0 .1 0-.2 0 .3.1.3.1.3.1.7.3.8.4-.1-.4-.3-.7-.4-1.1v.1l.7-1.3s-.1 0-.1.1c.4-.1.8-.1 1.2-.2-.2-.1-.5-.1-.7-.2-.1 0-.2-.2-.2-.2s0-.2 0 0c-.1.4-.1.8-.2 1.2 0 0 0-.1.1-.1.8-1.4-1.8-3-2.7-1.3z" fill="#c1272d"/><linearGradient id="A" gradientUnits="userSpaceOnUse" x1="321.049" y1="83.75" x2="340.549" y2="83.75"><stop offset="0" stop-color="#c1272d"/><stop offset="1" stop-color="#ed3132"/></linearGradient><path d="M340.5 72.5v24l-6.2 4h-7.8l-4.8-1.1-.7-4.3.6-8.9.3-8.3-.2-6.8.5-4.1 1.1 1.1 2.2 2.4 5.2 1.4 5.8.2 2.6-.3.7-.5z" fill="url(#A)"/><g stroke="gray" stroke-width="2" class="S T"><path d="M83.9 146.9l5-.2"/><path d="M98 146.5c10.7-.1 21.4.4 32 1.3" stroke-dasharray="9.1564,9.1564"/><path d="M134.6 148.2l5 .5c-2.7-1.1-5.1-3-6.6-5.5 1.4 2.8 3.3 5.4 5.7 7.4l-4 2.9m-.2.1l-4 2.9m-30.3-82.8l3.3 3.8"/><path d="M109.3,84.2c10.8,12.2,22,24.1,33.5,35.6" stroke-dasharray="8.8801,8.8801"/><path d="M145.9 122.9l3.6 3.5-2.7-9.6 1 4.9"/><path d="M147.7 121.9l1 4.9-4.9-.8m-2-.4l-4.9-.8"/></g><radialGradient id="B" cx="204.15" cy="43.76" r="19.622" gradientTransform="matrix(1 0 0 -1 0 190)" gradientUnits="userSpaceOnUse"><stop offset="0" stop-color="#b3b3b3"/><stop offset=".846" stop-color="gray"/></radialGradient><g class="T V"><path d="M184.4 142.5l.3-5.6 8.3 2.2c0-1.6 1-3.1 2.4-3.9-1.5-2-2.6-4.3-3.3-6.7l6.5-1.7 2.2 6.9c1.8-.5 3.8-.4 5.5.2.3-2.3 1.1-4.5 2.3-6.5l5.4 1.4-2.8 6.2c1.8.7 3.3 2 4.2 3.7 2-.7 3.9-1.9 5.4-3.3l3.1 6c-2 1.6-4.3 2.7-6.8 3.3.3 1.9.2 3.8-.4 5.6l5.3 1.5-2.8 6.3-5.1-1.3c-1.4 1.6-3.5 2.6-5.7 2.6l-1.5 6.5-5-1.1 1.7-6.6c-1.8-.3-3.6-1.3-4.8-2.7l-5 5.7-2.9-3.8 4.1-4.1a7.84 7.84 0 0 1-1.6-4.7c-1.8 1.1-3.8 1.8-5.9 2.2l-.6-3.4c2.1-.7 4.3-.9 6.5-.5-.9-.2-.7-3.5-1.7-4-1.8-.9-5.5-.3-7.3-.4z" fill="url(#B)"/><path d="M12.9 29.6L12.5 75c27.2-2.7 54.8-2.2 81.9 1.6 1.1-16.9 3.9-33.7 8.6-50l-88.9-6.8" class="S"/><path d="M19.7 22.2c-.3.5-.6 1.1-.7 1.7s.3 1.3.8 1.5 1.2-.1 1.4-.7c.2-.5.1-1.2-.3-1.6s-1-.6-1.6-.4" fill="#ff6158"/><path d="M24.4 25.9c.4.4.9.5 1.4.4s.9-.6 1.1-1.1c.9-3.2-4.9-1.7-2.5.7z" fill="#febd2e"/><path d="M29.3 24c-.4.4-.7.9-.8 1.4 0 .6.2 1.1.7 1.4.6.3 1.3 0 1.6-.5s.2-1.2-.1-1.7c-.4-.5-1-.7-1.7-.6" fill="#2aca42"/><g class="S"><path d="M16.6 29.9c14.5-1.1 29 2 43.2 5 11.9 2.6 24.3 2.1 36.5 2.5m-62.2-8.8c-.2-1.6 0-3.3.6-4.8L48.8 26c-.8 1.7-1.4 3.5-1.8 5.4"/><path d="M60.1 33.8c-.1-2-.1-4.1.1-6.1l-10.1-1.2m19.7 8.4l-.1-6.6c-2.8.2-5.6 0-8.4-.4"/></g><path d="M36.3 47.4c-1-2.9-1.4-6-1.2-9-2.6.2-9.5-.5-11.5 1.2-1.7 1.4-1.2 5.5-1.1 7.5 1.4.1 13.6-.5 13.8.3z" fill="#ff931e"/><path d="M53.8 40.9l-11.9-.2c3.9 0 7.9.2 11.9.2zM42.7 44l14.5.2m-14.7 3.3l11 .2" class="S"/><path d="M60.2 67.1l22.4 3.5a30.08 30.08 0 0 1 .9-16.8c-5.2-1.1-10.5-1.6-15.9-1.6-1.6 0-4.3-.4-5.6.9s-.7 3.8-.8 5.4c0 .8-.6 8.7-1 8.6z" fill="#7ac943"/><path d="M27.2 54.9c9.1-.4 18.1-.3 27.2.5M25.6 59c10.5-.1 21 .5 31.5 1.7m-29.9 2.8c9.1-.3 18.1.3 27.1 1.8m-13.6 80.3c-.1 1.7 0 3.5 1.3 4.7 1 .8 2.3 1 3.6 1.2 9.1 1.3 18.3 1.7 27.4 1.4-2.9-14.5-3.6-29.3-2.1-43.9-9.4-.2-18.9-1.1-28.2-2.7-1.7 13-1.5 26.2-2 39.3z" class="S"/><path d="M46.5 119.8l13.4.9c.4 0 .8 0 1-.3.2-.2.2-.5.1-.8l-.7-6.9c0 .1-10.3-.2-11.2-.1-3.9.4-2.6 3.8-2.6 7.2z" fill="#7ac943"/><path d="M47 124.2l18.7-1.1m-20.5 5.1h16.1" class="S"/><path d="M66.2 148.2c.2-3.8.1-7.6-.2-11.3 0-.3-7.1-1-7.7-1-.3 2.5-.1 5.3-.1 7.8 0 2.4-.4 2.9 1.8 3.8 1.8.8 4.3.7 6.2.7z" fill="#c69c6d"/><g class="S"><path d="M44.4 139a26.56 26.56 0 0 0 11.9 0m-11.9 4.1l9.4-.3m-8.1-8l10.1.3"/><path d="M37.3 158.8c12.5.6 24.9 1.8 37.3 3.5l.6-53.5c0-.7 0-1.5-.4-2.1-.6-.8-1.7-1-2.7-1.2-5.7-.7-11.5-1.3-17.3-1.7-3.2-.2-12.4-2.3-14.4.5-1.1 1.5-.6 5.2-.6 6.9l-.5 9.1-.9 18.1-1.1 20.4z"/><path d="M56.7 155.4c-.7-.4-1.6.1-1.9.8s.1 1.6.7 2.1 1.4.6 2.2.6c1.1 0 2.4-.5 2.7-1.6.3-1-.5-2.1-1.5-2.5s-2.1-.3-3.1-.3"/></g></g><radialGradient id="C" cx="211.311" cy="117.599" r="42.807" gradientTransform="matrix(1 0 0 -1 0 190)" gradientUnits="userSpaceOnUse"><stop offset="0" stop-color="#3fa9f5"/><stop offset=".031" stop-color="#80c6ed"/><stop offset=".846" stop-color="#b6e4fa"/></radialGradient><path d="M207.2 52.4c-1.4-2.3-2.9-4.6-5.1-6.3-2.2-1.8-5.3-3-8.2-2.5s-5.5 3-5 5.5c-3.4-1.7-7.1-3.1-11-3.3s-8.1 1.1-10.4 3.8-2.1 7 1 9.1c-2.1-2-6.3-1.2-7.9 1.1s-.9 5.3.8 7.4c1.7 2.2 4.4 3.7 7 5.1s5.3 2.8 7.3 4.8c-2.6 2.5-3.3 6.1-2.5 9.3s3 6.1 5.8 8.5c6.7 5.7 16.3 8.4 25.7 9s18.9-.8 28.2-2.2c3-.4 6.3-1.1 8-3.2.9-1.1 1.3-2.7 2.8-3.1 2.4-.7 4 2 6.1 3.3 2.7 1.6 6.8.5 8.5-2 1.7-2.4 1.3-5.6-.1-8.1S254.4 84 252 82c4.5-2.4 9-5.4 10.5-9.8 1.6-4.3-1.5-10-6.7-10.3 2-6.9-2.6-14.4-9.7-18.1s-16.3-3.8-24.2-1.5S207.2 49 201.2 54" fill="url(#C)" class="T V"/><g class="U"><path d="M41.4 8.2c0 .1 0 .2-.1.2-.1.1-.1.2-.1.3 0 0-.1.2-.3.5l-.2.3-.1.2v.1l-.6.6-.1.2-.3.3-.2.4h-.2l-.1.1c-.1 0-.1.1-.2.2l-.1.2-.1.1v.1l-.3.3-.1.2-.2.2v.2l-.1.2.1.4c-.1.1-.2.2-.4.3h-.2l-.3-.2-.1-.5-.3-.5v-.3l-.2-.2-.1-.3c0-.1-.1-.3-.2-.5 0-.1 0-.2-.1-.3l-.1-.2v-.2l-.1-.1-.1-.5-.2-.4v-.1s0-.1-.1-.2v-.1l-.4.4c0 .1-.2.2-.4.3l-.3.1h-.1l-.2.1c-.1.1-.2.2-.3.2l-.3.3-.3.4-.2.1-.1.1c0 .1-.1.2-.2.3v.1l-.1.1v.3l-.1.1-.2.3.1.1-.1.2v.1l-.1.1v.1c0 .2-.2.4-.4.3-.1 0-.2-.1-.3-.2l-.3-.5-.1-.2-.2-.5-.1-.5-.2-.4v-.3l-.1-.3-.2-.4v-.1l-.3-1v-.1l-.1-.3v-.9l.2-.4c.1-.2.2-.3.4-.3.1 0 .2 0 .3.1.2.2.3.4.3.7v.1l-.1.2v1l-.1.1h.1l.1.2.1.7v.1l.1.4.1.1v.2l.1.2v.1l.1.3v.1c0 .1 0 .2.1.2l.1-.2.1-.1.1-.2.1-.1s.1-.1.1-.2l.2-.1v-.2l.3-.2.1-.2h.2c.1-.1.1-.2.2-.2l.2-.1.1-.1v-.1c.2 0 .3-.2.4-.3h.2l.1-.3h.1l.1-.2h.2v-.2l.2-.2.3-.5c.1 0 .1-.1.3-.1V8l.2-.2h.3l.2.2h.2v.9l.2.7v.1l.1.1v.1c.1.1.1.4.2.8l.1.3v.2l.1.1.2.5s0 .1.1.2h.1c.1-.1.1-.2.2-.2l.2-.2.1-.2.3-.3s.1 0 .2-.1l.2-.4.3-.3.3-.4.2-.2.2-.3.2-.2h.1l.1-.3-.1-.1.2-.3s0-.1.1-.2v-.1c0-.1-.1-.2 0-.3v-.1l.2-.2v-.2c.1-.1.2-.2.4-.2.1 0 .2.1.3.2l.2.3V8c-.1.1 0 .2 0 .2zm3.9 4.8c0 .1-.1.2-.2.3 0 .1-.1.2-.2.3h-.1l-.1.2h-.2l-.3.2-.2.2h-.3l-.1.1h-.1c-.1 0-.2.1-.3.2l-.2-.1h-.1c-.1 0-.2 0-.3-.1h-.2l-.1-.1c-.3-.1-.5-.2-.6-.4l-.1-.1-.1-.2-.1-.1v-.2l-.1-.5v-.4l.1-.2v-.2l.1-.2v-.1l.1-.1c0-.1 0-.1.1-.2v-.4c0-.1.1-.2.2-.3v-.5c0-.1 0-.2.1-.3.1.1.1.2.3.2l.1-.1c.1-.2.2-.4.3-.5h.1s0-.1.1-.3h.1V9h.1c0-.1.1-.1.1-.1s.1-.1.3-.1c0-.1.1-.1.2-.1h.1l.1-.1c.2-.1.4-.1.4-.1.1 0 .1 0 .2.1h.1l.1.1c.1.1.2.1.3.2l.2.2c.2.2.2.4.2.6v.5l-.4-.1-.1.3-.2.2v.2c-.3.2-.5.3-.7.4-.1.1-.2.2-.3.1l-.2.1h-.2l-.3.1-.2-.1c0 .1 0 .2-.1.3l-.1.1v.1l-.1.2v.6c0 .1 0 .1.1.2 0 .1.1.2.1.2l.1.1.3.1h.7l.1-.1h.1l.1-.2h.1l.3-.1c0-.1.1-.1.2-.1v-.1c.2 0 .3-.1.3-.2.1-.1.3-.1.4-.1-.2.3-.1.5-.1.6zm-1-3.5v-.1h-.1l-.1.1h-.2l-.3.3-.4.2-.1.1c0 .1-.1.2-.2.3l-.1.1c.1-.1.2-.1.3-.1h.1v-.1h.2l.1-.1h.1l.1.1.1-.2h.1V10h.2v-.1l.2-.2v-.2zm6.5 3l-.1.1v.3l-.3.3v.1l-.1.1.1.1-.3.2-.2.3-.3.1c-.1.1-.2.1-.3.1l-.1.2-.1-.1-.1.1s0-.1-.1-.2l-.1-.1-.2.2-.2-.1-.3.1h-.2c-.1 0-.3-.1-.5-.1l-.2-.1V14l-.2-.1-.1-.3c-.1 0-.3-.1-.4-.1l-.2-.5.1-.1-.1-.1v-.2l-.1-.1.1-.1v-.6l.1-.1V11l.1-.2v-.1l.1-.3-.1-.1V10l.1-.1v-.3l.1-.4V7.9l-.1-.4c0-.1.1-.1.1-.1s0-.1-.1-.1l.1-.1c0-.1 0-.1-.1-.2 0-.1 0-.1.1-.2v-.1l.1-.1-.2-.4h.2l.4-.2.2.3v.1l.2.1V7s.1 0 .1.1c0 0 0 .1-.1.1v.1l-.1.2.1.2v.1l.2.1-.1.2-.1.3s0 .1-.1.2v.5l-.1.2v.2s.1.1.1.2l-.1.2v.2c0 .1 0 .1-.1.2v.3l-.1.4h.2v-.4l.2-.4a.76.76 0 0 1 .2-.4s0-.1.1-.1l.1-.1.2-.1.2-.2c0-.1 0-.2.1-.2V9h.3v-.3h.3l-.1-.2h.2l.2-.1h.4l.2.1h.1l.2.3v.1h.1v.3l.1.1v.2l.2.2v.4s0 .1.1.2c0 .1.1.1.1.2v.1l.1.1c0 .1-.1.2-.1.3v1.2l-.1.2v.1zm-.8-1v-1l-.2-.8-.2-.4h-.1l-.1.1h-.1c0 .1-.1.2-.3.2 0 .1-.1.2-.2.4l-.2.1-.1.2-.1.1-.1.3a.76.76 0 0 1-.2.4l-.1.1v.2l-.2.2-.1.4h-.1v.1c0 .1-.1.3-.1.4l.1.2h-.2l-.1.1.3.1.2.1h.2l.2.1v.2h.5c.1-.1.1-.1.2-.1h.1v-.1h.3c.1-.2.2-.4.4-.5v-.1l.2-.3v-.3l.1-.3v-.1zm9.6 1.6l-.1.1v.3l-.3.3v.1l-.1.1.1.1-.3.2-.2.3-.3.1c-.1.1-.2.1-.3.1l-.1.3-.1-.1-.1.1s0-.1-.1-.2l-.1-.1-.1.2-.1.1-.2-.1-.2.1-.2-.1h-.1c-.1 0-.3-.1-.5-.1l-.2-.1v-.1l-.2-.1-.1-.3c-.1 0-.3-.1-.4-.1l-.2-.6.1-.1-.1-.1v-.2l-.1-.1.1-.1v-.6l.1-.1.1-.7.1-.2v-.1l.1-.3-.1-.1v-.3l.1-.1v-.3l.1-.4V8.5l-.1-.4c0-.1 0-.1.1-.1 0 0 0-.1-.1-.1l.1-.1c0-.1 0-.1-.1-.2 0-.1 0-.1.1-.2v-.1l.1-.1-.2-.4h.2l.4-.2.2.3V7l.2.1v.5c.1.1.1.1.1.2 0 0 0 .1-.1.1V8l.1.2v.1l.2.1-.1.2-.1.3s0 .1-.1.2v.5l-.1.2v.2s.1.1.1.2l-.1.2v.2c0 .1 0 .1-.1.2v.3l-.1.4h.2l.1-.4.2-.4a.76.76 0 0 1 .2-.4s0-.1.1-.1l.1-.1.2-.1.2-.2c0-.1 0-.2.1-.2v-.1h.3v-.3h.3l-.1-.1h.2V9h.4l.2.1h.1l.2.3v.1h.1v.3l.1.1v.2l.2.2v.4s0 .1.1.2c0 .1.1.1.1.2v.1l.1.1c0 .1-.1.2-.1.3v1.2l-.1.2-.1.1zm-.7-.9v-1l-.2-.8-.3-.4h-.1l-.1.1h-.1c0 .1-.1.2-.3.2l-.3.3-.2.1-.1.2.1.1-.1.3a.76.76 0 0 1-.2.4l-.1.1v.2l-.2.2-.1.4h-.1v.1c0 .1-.1.3-.1.4l.1.2h-.2l-.1.1.3.1.2.1h.2l.1.4v.3h.5c.1-.1.1-.1.2-.1h.1v-.1h.3c.1-.2.2-.4.4-.5v-.1l.2-.3v-.3l.1-.3v-.2l.1-.2z"/><path d="M65.5 10.9l-.1.4H65l-.3.1-.2-.1-.4.2-.1.1-.3.1-.1.3h-.1c-.1.1-.2.2-.3.2l-.2.3h-.1c0 .1-.1.2-.1.3h-.2v.2l-.1.1v.2h-.1v.2s0 .1.1.1l-.2.1v.2l-.3.1.1.2-.2.2v.4l.2.2-.2.3-.2.1-.3.1-.4-.2V14c0-.1 0-.1.1-.2V13l.1-.3-.1-.1.1-.1v-.6l.1-.1v-.2l-.3-.2.1-.2v-.5c0-.1-.1-.1 0-.2 0-.2.2-.3.6-.4l.3.1v.2l.1.2-.2.4v.8s0 .1-.1.2v.5l-.1.1v.1c.1-.1.1-.1.1-.2l.1-.2.1-.1.1-.2.2-.1v-.1l.1-.1.1-.2c.1-.1.2-.2.3-.2l.1-.2h.1l.3-.3h.2l.2-.2.2-.1.3-.1h.7c.5.3.6.4.6.5zm4.2 2l-.1.2c0 .2 0 .4-.1.5l-.1.1v.1l-.1.1v.2l-.1.1-.1.3H69l-.2.2-.1.2-.2.1v.1l-.2.1c-.1.1-.2.2-.4.2-.1.2-.3.2-.5.2-.1 0-.2.1-.3.1l-.1.1h-.1l-.2.1h-.4l-.2-.1-.5-.1-.4-.6.1-.2-.2-.4.1-.2v-.7c0-.2.1-.3.1-.3 0-.1.1-.2.2-.4h.1v-.5l.1-.1v-.2c.1-.1.1-.2.1-.3l.6-.6v-.3l.3-.1c.1-.1.2-.2.2-.3h.2c.1 0 .2-.1.2-.1.1 0 .1 0 .2.1h.1l.3-.1.3.3h.1l.2.1h.1a1.38 1.38 0 0 1 .3.4v.1l.1.1.2.3.2.6v.1l.3.5zm-.8.2c-.1-.1-.1-.2-.1-.2v-.1l-.1-.2v-.3l-.2-.2c-.1 0-.1-.1-.1-.2h-.1l-.1-.2-.1-.1-.1-.2h-.1s-.1 0-.1-.1l-.3.2-.2.3-.2.2v.1H67l-.1.3-.1.1c0 .1-.1.2-.1.3l-.3.2h.1c0 .1-.1.2-.1.2 0 .1-.1.1-.1.2v.2l-.3.5v.8l.1.2.2.1h.5l.1-.1h.3l.2-.1h.1c.1-.1.2-.2.4-.2v-.1l.3-.2.1-.2.2-.1v-.1l.1-.1v-.2l.2-.1.2-.2v-.2c-.2 0-.2-.1-.1-.2zm9.4-1.6l-.1.2v.1l-.2.5v.2l-.2.2-.1.2v.1l-.2.4-.3.4-.4.5-.1.2-.2.3-.2.4-.4.6-.1.2-.2.3-.4-.1-.2-.2-.2-.6-.1-.4v-.1l-.1-.3-.1-.1-.4-1.1-.1-.3-.1.2-.2.1-.3.4-.3.2-.1.3-.3.3v.1l-.2.4v.2l-.1.2v.2h-.1l-.3.3c-.1 0-.2.1-.3.1l-.1-.1-.2-.1v-.1l-.1-.1v-.3l-.1-.4v-.2l-.2-.6v-.3l-.1-.1v-.2l-.1-.3v-.1l-.1-.3-.2-.2v-.9l-.1-.1c0-.1-.1-.2-.1-.2l-.2-.5.2-.2c.1-.1.2-.1.3-.1h.3l.1.1.2.1.1.2.1.1v.4l.1.2v.2l.1.5v.4l.1.4v.5l.1.2v.3l.1.3v.1l.2-.1.3-.4.2-.4c0-.1 0-.1.1-.2h.1l.1-.2h.1c0-.1.1-.1.1-.1s0-.1.1-.1v-.1h.1V13l.3-.3v-.2l.2-.1h.1v-.3a.76.76 0 0 1 .2-.4h.4l.2.2.1.2.1.3.1.2v.1l.1.3v.1l.2.4.2.6v.2l.1.1.2.6.1-.1.2-.4.1-.1-.2-.4h.1v-.2c.1 0 .1-.1.2-.1 0 0 .1 0 .1-.1v-.3l.2-.1h.1l.2-.3c0-.1.1-.2.2-.3v-.1l.2-.2.1-.3c-.1-.2-.1-.5-.1-.6 0-.2.2-.4.4-.4h.3l.1-.1.2.2v.4zm4.8 4.2l-.2.2-.2.3-.1.1-.1.2h-.2l-.2.1h-.2l-.2.1h-.3v.1l-.4-.2h-.2l-.1.1-.1-.1h.2-.7l-.2.1s-.1-.1-.3-.1h-.8l-.2-.1h-.2c-.3-.1-.4-.3-.4-.8v-.1l.2-.1.3-.1.2.1h.2c.1 0 .1.1.2.2h.1v.2h2.1v-.1h.2c.2 0 .3 0 .5-.1v-.2h-.1l-.1-.1h-.1l-.1-.1h-.1l-.1-.1h-.1c-.1 0-.2 0-.3-.1V15h-.3l-.1-.1-.6-.3-.1-.1-.4-.1v-.1l-.4-.3-.1-.4-.1-.2v-.6l.1-.1c0-.2.1-.3.2-.5.1-.1.2-.1.2-.3h.2c0-.1.1-.1.2-.2l.2-.1.8-.2h.3l.4-.1.8.1v.1c.1 0 .1.1.2.2v.1l.2.1-.1.3v.1c-.1.2-.2.3-.4.3-.1 0-.2-.1-.3-.2h-.3l-.1-.1-.1.1c-.1 0-.2 0-.3.1-.1 0-.2 0-.4.1h-.2l-.1.1h-.3l-.1-.1-.1.2-.1.1c0 .1-.1.2-.1.3v.2s.1.1.2.1v.1l.1.1c.1.1.2.1.3.2h.2l.1.1.3.1.1.1.5.2.1.1.1-.1c.1 0 .2.1.4.2l.2.1v.1h.2l.3.2c0 .1.1.2.2.3l.1.1v.3zm4.7.3c0 .1-.1.2-.2.3 0 .1-.1.2-.2.3h-.1l-.1.2H87l-.3.2-.1.2h-.3l-.1.1h-.1c-.1 0-.2.1-.3.2l-.2-.2h-.1c-.1 0-.2 0-.3-.1H85l-.1-.1c-.3-.1-.5-.2-.6-.4l-.1-.1-.1-.2-.1-.1v-.2l-.1-.5v-.4l.1-.2v-.2l.1-.2v-.1l.1-.1c0-.1 0-.1.1-.2v-.4c0-.1.1-.2.2-.3V13c0-.1 0-.2.1-.3.1.1.1.2.3.2l.1-.1c.1-.2.2-.4.3-.5h.1s0-.1.1-.3h.1v-.1h.1c0-.1.1-.1.1-.1s.1-.1.3-.1c0-.1.1-.1.2-.1h.1l.1-.1c.2-.1.4-.1.4-.1.1 0 .1 0 .2.1h.1l.1.1c.1.1.2.1.3.2l.2.2c.2.2.2.4.2.6v.5l-.1.1-.1.3-.2.2v.2c-.3.2-.5.3-.7.4-.1.1-.2.2-.3.1l-.2.1h-.2l-.3.1-.9-.1c0 .1 0 .2-.1.3l-.1.1v.1l-.1.2v.6c0 .1 0 .1.1.2 0 .1.1.2.1.2l.1.1.3.1h.7l.1-.1h.1l.1-.2h.1l.3-.1c0-.1.1-.1.2-.1v-.1c.2 0 .3-.1.3-.2.1-.1.3-.1.4-.1.1.3.2.4.2.5zm-1-3.5v-.1h-.1l-.1.1h-.2l-.3.3-.2.3-.1.1c0 .1-.1.2-.2.3l-.1.1c.1 0 .2-.1.3-.1h.1v-.1h.2l.1-.1h.1l.1.1.1-.2h.1v-.1h.2V13l.2-.2c-.2-.2-.2-.3-.2-.3zm6.5.4l-.1.4h-.4l-.3.1-.2-.1-.2.1-.2.2-.3.1-.2.3h-.1c-.1.1-.2.2-.3.2l-.2.3h-.1c0 .1-.1.2-.1.3h-.2l-.2.2v.2h-.1v.2s0 .1.1.1l-.2.2v.2l-.1.1.1.2-.2.2v.4l.2.2-.2.3-.2.1-.3.1-.4-.2v-1.2c-.1-.1-.1-.1-.1-.2s0-.1.1-.2v-.8l.1-.3.1-.1v-.6l.1-.1v-.2l-.1-.2.1-.2v-.5c0-.1-.1-.1 0-.2 0-.2.2-.3.6-.4l.3.1v.2l.1.2-.4.4v.8s0 .1-.1.2v.5l-.1.1v.2c.1-.1.1-.1.1-.2l.1-.2.1-.1.1-.2.2-.1v-.1l.1-.1.1-.2c.1-.1.2-.2.3-.2l.1-.2h.1l.3-.3h.2l.2-.2.2-.1.3-.1h.7c.4.1.5.2.5.4z"/><path d="M38.7 171c-.1.1-.2.2-.5.3l-.4-.3-.3-.4-.1-.3v-.3c-.1-.3-.1-.5-.1-.7 0 0 0-.1.1-.2v-.2l-.1-.3v-.9c0-.1 0-.3-.1-.4v-.3l-.1-.2v-.2l-.1.1-.4.5-.4.3-.1.2-.4.4-.4.2-.1.2-.2.1-.1.1-.3.1-.1.2-.2.1-.3.4-.1.1s0 .1-.1.2-.3.1-.4.1h-.1l-.1-.2-.2-.3v-.1l-.1-.2.1-.1v-.2l-.1-.1c-.1-.2-.3-.3-.3-.4l-.1-.2-.1-.1-.2-.4-.2-.3-.1-.2-.2-.3-.2-.4c0-.1 0-.1-.1-.2 0 .3-.1.5-.2.6l-.2.3v.3l-.1.3-.3.7-.1.2v.2l-.2.4-.2.2v.2c-.1.1-.1.3-.2.4l.1.3c-.2.2-.4.3-.6.3-.1 0-.2-.1-.3-.2s-.1-.1-.1-.2c.2-.6.3-.9.4-.9v-.2c0-.2.1-.4.3-.4v-.1l.1-.2v-.1s0-.1.1-.3h.1v-.3l.1-.2.2-.6v-.4l.2-.1.1-.5v-.4l-.2-.4.1-.2h.1l.1-.1v-.1l.2-.1.1.1.2-.1h.2l.3.2v.1l.1.1v.3l.1.1.1.2.1.1h.1l.2.2v.2l.1.1.1.3.5.6-.1-.1.2.1.2.5.3.7.1.1h.1l.1-.2.3-.2.3-.3s.1-.1.2-.1c0 0 .1-.1.2-.1l.4-.4v-.1c.2-.2.4-.4.5-.4 0-.1.1-.2.4-.3l.2-.3.1-.2h.1c.1-.2.2-.3.2-.3l.2-.1h.1v-.2l-.1-.2.2-.2.1-.3h.3s.2.1.3.1v.5l.1.1-.1.1c.1.1.1.1.1.2v.3s.1.1.1.2l-.1.1v.3l.2.1-.1.2-.1.3v.5l.1.4c0 .2.1.3 0 .4 0 .1 0 .1-.1.2.1 0 .1.1.1.1 0 .1 0 .1-.1.2l.1.1-.1.7.1.4v.4c0 .1.1.2.1.2s.1.1.2.3c.2-.1.2 0 .2.1zm5.4-2.4l-.1.2c0 .2 0 .4-.1.5l-.1.1v.1l-.1.1v.2l-.1.1-.1.3h-.1l-.2.2-.1.2-.1.1v.1l-.2.1c-.1.1-.2.2-.4.2-.1.2-.3.2-.5.2-.1 0-.2.1-.3.1l-.1.1h-.1l-.2.1h-.4l-.2-.1-.5-.1-.4-.6.1-.2-.2-.4.1-.2v-.7c0-.2.1-.3.1-.3 0-.1.1-.2.2-.4h.1v-.5l.1-.1v-.2c.1-.1.1-.2.1-.3l.6-.6v-.3l.3-.1c.1-.1.2-.2.2-.3h.2c.1 0 .2-.1.2-.1.1 0 .1 0 .2.1h.1l.3-.1.3.3h.1l.2.1h.1a1.38 1.38 0 0 1 .3.4v.1l.1.1.2.3.2.6v.1l.2.5zm-.8.2c-.1-.1-.1-.2-.1-.2v-.1l-.1-.2v-.3c-.1-.1-.1-.2-.2-.2s-.1-.1-.1-.2h-.1l-.1-.2-.1-.1-.2-.1h-.1s-.1 0-.1-.1l-.3.2-.2.3-.3.1v.1h-.1l-.1.3-.1.1c0 .1-.1.2-.1.3l-.2.2h.1c0 .1-.1.2-.1.2 0 .1-.1.1-.1.2v.2l-.2.3v.4l-.1.2v.2l.1.2.2.1h.5l.1-.1h.3l.2-.1h.1c.1-.1.2-.2.4-.2v-.1l.3-.2.1-.2.2-.1v-.1l.1-.1v-.2l.2-.1.2-.2v-.2c-.1.2-.1.1 0 0zm6.3 1.1l-.1.1v.3l-.3.3v.1l-.1.1.1.1-.3.2-.2.3-.3.1c-.1.1-.2.1-.3.1l-.1.2-.1-.1-.1.1s0-.1-.1-.2l-.1-.1-.2.2-.2-.1-.3.1-.1-.1h-.1c-.1 0-.3-.1-.5-.1l-.2-.1-.1-.1-.2-.1-.1-.3c-.1 0-.3-.1-.4-.1l-.2-.6.1-.1-.1-.1v-.2l-.1-.1.1-.1v-.6l.1-.1.1-.7.1-.2v-.1l.1-.3-.1-.1v-.3l.1-.1v-.3l.1-.4v-1.3l-.1-.4c0-.1.1-.1.1-.1s0-.1-.1-.1l.1-.1c0-.1 0-.1-.1-.2 0-.1 0-.1.1-.2v-.1l.1-.1-.2-.4h.2l.4-.2.2.3v.1l.2.1v.5c.1.1.1.1.1.2 0 0 0 .1-.1.1v.1l-.1.2.1.2v.1l.2.1-.1.2-.1.3s0 .1-.1.2v.5l-.1.2v.2s.1.1.1.2l-.1.2v.2c0 .1 0 .1-.1.2v.3l-.1.4h.2v-.4l.2-.4a.76.76 0 0 1 .2-.4s0-.1.1-.1l.1-.1.2-.1.2-.2c0-.1 0-.2.1-.2v-.1h.3v-.3h.3l-.1-.1h.2l.2-.1h.4l.2.1h.1l.2.3v.1h.1v.3l.1.1v.2l.2.2v.4s0 .1.1.2c0 .1.1.1.1.2v.1l.1.1c0 .1-.1.2-.1.3v1.2l-.1.2v.1zm-.7-1v-1l-.2-.8-.2-.4h-.1l-.1.1h-.1c0 .1-.1.2-.3.2l-.3.3-.2.1-.1.2-.1.1-.1.3a.76.76 0 0 1-.2.4l-.1.1v.2l-.2.2-.1.4h-.1v.1c0 .1-.1.3-.1.4l.1.2h-.2l-.1.1.3.1.2.1h.2l.2.1v.2h.5c.1-.1.1-.1.2-.1h.1v-.1h.3c.1-.2.2-.4.4-.5v-.1l.2-.3v-.3l.1-.3v-.2l.1.2zm5.1 1.4c0 .2-.1.3-.1.3h-.1l-.1.2h-.2l-.3.3h-.1l-.2.2h-.1c-.1.1-.2.2-.4.2l-.1.1c-.1.1-.3.1-.4.1h-.1l-.1.1h-.2l-.2.1-.5-.4-.2-.5v-.7l.2-1h.1v-.4c0-.1 0-.2.1-.4l.1-.3s0-.1-.1-.2l.1-.2v-.9c0-.2.1-.3.3-.2h.3c.2 0 .3.1.3.3v.5l-.1.6.1.2a.76.76 0 0 1-.2.4v.1l-.2.4c0 .2-.1.3-.1.5v.3l-.1.2v.6l.2.2h.4l.2-.2h.1v-.1l.1.1.1-.1h.1v-.2h.1l.2-.1c.2-.1.4-.2.6-.2.4 0 .5 0 .5.1zm-.8-6.4c0 .1-.1.2-.2.2-.2.2-.3.3-.4.3l-.3.3H52l-.1.2-.2.1-.3.3-.2-.2.1-.3.1-.2c0-.1.1-.2.2-.3h.1v-.2h.2v-.1h.1c0-.2.1-.3.2-.3l.1-.1.1-.3c.6.1.9.3.8.6z"/><path d="M58 171.1c0 .1 0 .2-.1.2l-.5.5h-.1l-.2.1h-.2c-.2 0-.3.1-.4.2-.1 0-.1.1-.2 0h-.1c-.1.1-.3.1-.5.1s-.3 0-.4-.1l-.2-.1-.1-.1c0-.1 0-.2-.1-.3v-.2l-.1-.1v-1.2c.1-.3.1-.5.1-.6l-.1-.2.1-.2.1-.3v-.2l.1-.2-.1-.2.1-.2v-1.1l.1-.5v-.9l.1-.7c.3-.1.5-.1.4-.1.1 0 .2.1.3.2v.1l.2.2-.1.2c0 .2-.1.2-.1.3v.5l-.1.2c0 .1 0 .3-.1.4v.3l.1.1v.2s0 .1-.1.2v.1l-.1.4v.3l-.1.2v.2l-.1.5v.1l-.1.3v1.1l.1.2v.1s.1.1.1.2h.1l.2.1.1-.1h.2c.1 0 .1 0 .2-.1h.1c.1-.1.2-.1.3-.2l.2-.2c0-.1.1-.2.2-.2h.2c.2 0 .3.1.3.1.3.1.3.2.3.4zm4.3.6c0 .1-.1.2-.2.3 0 .1-.1.2-.2.3h-.1l-.1.2h-.2l-.2.1-.1.2h-.3l-.1.1h-.1c-.1 0-.2.1-.3.2l-.2-.2h-.1c-.1 0-.2 0-.3-.1h-.2l-.1-.1c-.3-.1-.5-.2-.6-.4l-.1-.1-.1-.2-.1-.1v-.2l-.1-.5v-.4l.1-.2v-.2l.1-.2v-.1l.1-.1c0-.1 0-.1.1-.2v-.4c0-.1.1-.3.2-.3v-.5c0-.1 0-.2.1-.3.1.1.1.2.3.2l.1-.1c.1-.2.2-.4.3-.5h.1s0-.1.1-.3h.1v-.1h.1c0-.1.1-.1.1-.1s.1-.1.3-.1c0-.1.1-.1.2-.1h.1l.1-.1c.2-.1.4-.1.4-.1.1 0 .1 0 .2.1h.1l.1.1c.1.1.2.1.3.2l.2.2c.2.2.2.4.2.6v.5l-.1.1-.1.3-.2.2v.2c-.3.2-.5.3-.7.4-.1.1-.2.2-.3.1l-.2.1h-.2l-.3.1-.2-.1c0 .1 0 .2-.1.3l-.1.1v.1l-.1.2v.6c0 .1 0 .1.1.2 0 .1.1.2.1.2l.1.1.3.1h.7l.1-.1h.1l.1-.2h.1l.3-.1c0-.1.1-.1.2-.1v-.1c.2 0 .3-.1.3-.2.1-.1.3-.1.4-.1-.7.3-.6.5-.6.6zm-.9-3.5v-.1h-.1l-.1.1H61l-.3.3-.2.3-.1.1c0 .1-.1.2-.2.3l-.1.1c.1-.1.2-.1.3-.1h.1v-.1h.2l.1-.1h.1l.1.1.1-.2h.1v-.1h.2v-.1l.2-.2c-.3-.2-.2-.3-.2-.3zm9.8.2l-.1.1.1.3-.2.2-.1.2v.2c0 .1 0 .2-.1.2v.3l-.1.1v.1l-.1.1v.2l.1.1-.1.1v.2l-.1.2v.2l-.1.1.1.1-.2.3h.1l-.1.3v.1h.2l.1.3-.1.2h.1c0 .1.1.2.1.3l-.2.2c-.1.1-.1.1-.3.2l-.2.1-.1-.1-.1.1-.3-.5v-.2c0-.2-.1-.3 0-.4v-.8l.1-.5-.1-.3-.2.3-.1.3h-.1l-.2.3-.4.4-.3.2-.1.2-.4.2-.4.4h-.2l-.2.1c-.2 0-.3-.1-.4-.3-.3-.2-.5-.5-.5-.8h.1v-.2l-.1-.2.1-.2v-.2l.1-.4v-.2c0-.1 0-.1.1-.3h.1l-.1-.1v-.2c0-.1.1-.2.2-.2 0-.1.1-.2.1-.2l-.1-.1.2-.2c0-.2.1-.3.2-.4v-.2h.1s0-.1.1-.1v-.1c0-.1.1-.2.3-.3.1-.2.3-.3.3-.4l.1.1.1-.1h.1l.4-.2.9.1v.1l.3.1c.2 0 .3.1.3.2v-.1l.2.2.2.1.4-.1.1.3.4-.1zm-1.2.6l-.4-.4-.2-.1h-.3l-.1-.1h-.3v.1l-.3.1-.1.1c-.2.1-.3.2-.3.3l-.1.3-.1.1.1.2-.2.1a.76.76 0 0 0-.2.4l-.1.1v.2l-.1.1v.7l-.1.2v.1l-.1.1.1.2-.1.2v.2h.1l.1-.1v-.1h.2v-.1l.7-.5h.1l.1-.2s.1 0 .2-.1l.1-.2h.1v-.2h.2s0-.1.1-.1l.1-.1.7-.8.1-.2.1-.1v-.1l.1-.1-.2-.2zm7 2.9l-.2.3.1.2-.1.1-.2.4v.2h-.2c-.1.1-.2.2-.4.2h-.4l-.2.1-.3-.1h-.2l-.3-.1h-.3l-.1-.1h-.3l-.1-.1h-.1v.1c0 .1 0 .1-.1.2v.2l-.1.1v.4l-.1.3v.5l-.1.1v.3h.1v.3c0 .1 0 .1-.1.2v.2l-.1.1v.5c-.1.6-.2.8-.4.8 0 0-.2 0-.4-.1l.1-.4-.1-.5.1-.2v-.7l.1-.1-.1-.3.1-.1v-.2l.1-.2s0-.1-.1-.1l-.1-.1.1-.1v-.1c0-.1 0-.2.1-.4l-.1-.1v-.2l-.1-.1.1-.1v-.4l.1-.5-.1-.2.4-.1-.1-.1.1-.2-.1-.1v-.2l.1-.2v-.3l.1-.2v-.2l.1-.2v-.1l.1-.2v-.3l-.4.2v-.1h-.1l-.1.1h-.1l-.2.2-.1-.1H72c-.4-.3-.6-.5-.6-.6s.1-.2.1-.2v-.2c.2-.1.4-.2.6-.2l.1-.1.4-.1.1-.1h.4l.1-.4.3.1.2.3.1-.1.2.2c.1 0 .2 0 .3.1l.1.1h.1l.1.1h.1v.1l.3-.1.1.2.2.1.1.2.3.2.2.1v.1c.1.1.1.1.1.2l.2.2h.1v.2l.1.1v.1h.1a.9.9 0 0 0 .1.5v.1l.1.1v.2l.1.2.2.2zm-.9.2v-.1l-.1-.2.1-.1v-.2l-.1-.2v-.1l-.2-.3-.1-.1-.1-.2-.1-.1-.2-.3h-.2l-.1-.2h-.1l-.1-.2h-.2l-.1.1-.1-.1h-.1v-.1l-.2-.1v.4l.1.2-.2.3v.2l-.1.4c0 .2.1.3.1.4l-.1.1s0 .1-.1.1l.1.1-.1.1v.6h.4c.1 0 .1 0 .2.1h.2c.1 0 .1 0 .2.1h.2l.2-.1.2.1h.1l.2-.2v-.2h.1v-.1l.3-.1zm6.5.2l-.2.3.1.2-.1.1-.2.4v.2H82c-.1.1-.2.2-.4.2h-.4l-.2.1-.3-.1h-.2l-.3-.1-.3.1-.1-.1h-.3l-.1-.1h-.1v.1c0 .1 0 .1-.1.2v.2l-.1.1v.4l-.1.3v.5l-.1.1v.3h.1v.3c0 .1 0 .1-.1.2v.2l-.1.1v.5c-.1.6-.2.8-.4.8 0 0-.2 0-.4-.1l.1-.4-.1-.5.1-.2v-.7l.1-.1-.1-.3.1-.1v-.2l.1-.2s0-.1-.1-.1l-.1-.1.1-.1v-.1c0-.1 0-.2.1-.4l-.1-.1v-.2l-.1-.1.1-.1v-.4l.1-.5-.1-.2.1-.2-.1-.1.1-.2-.1-.1v-.2l.1-.2v-.3l.1-.2v-.2l.1-.2v-.1l.1-.2v-.3l-.4.2v-.1h-.1l-.1.1h-.1l-.2.2-.1-.1-.1.1c-.4-.3-.6-.5-.6-.6s.1-.2.1-.2v-.2c.2-.1.4-.2.6-.2l.1-.1.4-.1.1-.1h.4l.1-.4.3.1.2.3.1-.1.2.2c.1 0 .2 0 .3.1l.1.1h.1l.1.1h.1v.1l.3-.1.1.2.2.1.1.2.3.2.2.1v.1c.1.1.1.1.1.2l.2.2h.1v.2l.1.1v.1h.1a.9.9 0 0 0 .1.5v.1l.1.1v.2l.1.2.3.1zm-.9.2v-.1l-.1-.2.1-.1v-.2l-.1-.2v-.1l-.2-.3-.1-.1-.1-.2-.1-.1-.2-.3h-.2l-.1-.2h-.1l-.1-.2h-.2l-.1.1-.1-.1h-.1v-.1l-.2-.1v.4l.1.2-.2.3v.2l-.1.4c0 .2.1.3.1.4l-.1.1s0 .1-.1.1l.1.1-.1.1v.6h.4c.1 0 .1 0 .2.1h.2c.1 0 .1 0 .2.1h.2l.2-.1.2.1h.1l.2-.2v-.2h.1v-.1l.3-.1z"/><path d="M204.2 74.3l-.2.4c0 .3-.2.4-.4.4l-.1.2-.4.3-.3.3h-.3c-.2.2-.5.3-.7.4l-.2.1c-.1 0-.4.1-.7.2l-.2.1h-.2c-.1.1-.3.1-.4.1h-.4c-.1 0-.2 0-.3-.1h-.1l-.2.1h-.2l-.4-.1-.2-.1-.3-.1-.1-.1c-.2 0-.4-.1-.4-.3-.1-.1-.2-.2-.2-.4-.1 0-.1-.1-.2-.2s-.1-.3-.1-.4V74h.1v-.1l.2-.5.2-.3.1-.3c0-.1.1-.2.2-.4v-.1l-.1-.2.3-.1.2-.2v-.3l.2-.1.1-.2c.2 0 .3-.1.3-.1l.4-.4.3-.1.2-.1.2.1c.2 0 .3-.1.4-.1h.3c.2.1.4.2.6.2l.2.1.7.4.1.2.1.1.1.3.1.2v.7c0 .2-.2.4-.7.5l-.2-.2-.1-.2-.1-.3v-.8l-.1-.1s-.1-.1-.2-.1c-.2-.1-.4-.1-.4-.2h-.2l-.1-.1-.1.1-.2-.1h-.2l-.1.1h-.2l-.5.5-.3.4h-.1l-.1.3-.1.1v.1l-.2.3-.1.5-.1.2.1.2-.1.1v.6l.1.2v.1l.1.1v.2l.1.2v.1l.2.2v.1l.4.2v.1h.3l.1.1.3-.1.1.1h.1c.1-.1.2-.1.3-.1h.3l.1.1h.3a.76.76 0 0 1 .4-.2c.1-.1.2-.1.3-.1 0 0 .2-.1.3-.2.1 0 .2 0 .2-.1l.1-.2h.2l.2-.1.1-.1.2-.1.6-.6.4-.2h.3zm7.4-.1c0 .1 0 .1 0 0l-.1.2v.2l-.2.3-.1.2-.3.1-.1.1-.3.1-.2.1h-.1l-.1.1h-.3c-.1.1-.2.2-.4.2h-.1s-.1 0-.2.1h-.4c-.2 0-.3.1-.4.1h-.1c-.2.1-.4.1-.6.1h-.4l-.2-.1h-.1l-.2.2h-.4v.2l-.1.2-.4.4-.2-.1h-.2v-.5l-.1-.1s-.1 0-.2.1h-.1l-.2-.2-.1-.3.2-.2c.1-.1.3-.2.6-.3v-1.3l.1-.1-.2-.2.2-.3-.1-.7v-.5l-.1-.3v-.4l-.1-.2h-.1l-.3.1h-.5c-.1 0-.2-.1-.3-.4l-.1-.4c.2-.2.4-.3.6-.3.2-.1.4-.1.6-.1h.2s.1 0 .3-.1v.1h.5l.5.1.2.1h.3l.1.2h.1l.2.1h.1l.1.1c.1 0 .2 0 .3.1.2.1.4.2.5.3.1 0 .1 0 .2.1s.2.1.3.1l.3.2.3.3h.3l.1.1v.2l.6.6v.1l.2.1v.3l.1.1v.1l.6.6zm-1 .1v-.2l-.4-.5h-.1l-.1-.3c-.2-.1-.3-.1-.4-.2V73h-.1l-.4-.1-.1-.2-.9-.5h-.2c-.1 0-.2 0-.3-.1V72h-.6c-.1 0-.1 0-.1-.1l-.1-.1h-.2c-.1-.1-.2-.1-.3-.1l-.1.2h-.1l.1.3-.1.1c.1.2.1.3.1.3v.2l.1.3h-.1v.8l.1.1-.1.4.1.3-.2.2.1.2v.2l.1.1-.1.2h.1l.4-.1h.6c.2 0 .3-.1.5-.2h.6c.1 0 .1 0 .2-.1h.2c.1-.1.2-.1.3-.1h.2l.1-.2h.3l.2-.1h.1l.6-.5zm9.9-2.6l-.2.8v.7l-.1.2v.1l-.2.5v.1l-.1.4v.2l-.1.3.1.3-.2.3v.2l-.1.2v.6l.2.3-.2.2-.1.2-.4-.1-.1-.5h-.1v-1h-.2l-.1.1-.2-.2h-.2l-.3-.2h-.4l-.1-.1-.9-.5-.1-.1-.3-.1-.5-.5-.6-.2-.4-.4h-.2l-.1-.2c-.2-.1-.3-.2-.5-.4v.1l-.1.5.1.3-.2.6v.7h.1l-.1.4v.6l.4-.1-.2.2v.1c0 .2-.1.3-.3.5h-.2c-.2 0-.4-.2-.4-.5l.1-.4-.1-.2.1-.2v-.3l-.1-.1v-.3c0-.1 0-.2-.1-.4l.1-.1.1-.2-.1-.3.1-.3-.1-.2.1-.6v-2.1c0-.1.1-.2.3-.2h.1l.1-.1a.78.78 0 0 1 .4.4h.1v.4l.2.1v.1l.2.1.1.3.1.1.3.2c.1 0 .1.1.1.2l.3.2.3.3.9.7c.2 0 .3.1.4.3l.4.1.3.2h.1l.4.2.3.1a1.38 1.38 0 0 0 .4.3v-.2l.1-.2.1-.7.1-.2-.1-.2.1-.5v-.4l.1-.7-.2-.2.2-.5-.1-.1.1-.2v-.1l.6-.3.1.1.4.1c-.1.2-.1.3-.1.3v.1c.1.1.1.2.1.2l-.1.2.3.6z"/></g><path d="M320.8 97.7c.7-7.4 1-14.9 1.1-22.3 0-4.1-1.4-10.4 4-11.9 3-.8 17.5 2.9 14.2 7.6-.6.8-1.8 1-2.8 1-3.8.2-8 .2-11.5-1.6-1.6-.8-2.6-2.1-2.8-3.3m-2 31.1c.6 1.6 2.6 2 4.3 2.1 2.5.3 5.1.5 7.7.3s5.3-2.7 7.4-4.1l.1-25.2" class="S T V"/><g class="U"><path d="M308.2 106.3s0 .1-.1.2-.1.2-.1.2c0 .1-.1.1-.2.2 0 .1-.1.2-.2.2l-.2.2-.2.3h-.2c-.1.1-.1.2-.2.2 0 0-.1 0-.2.1l-.3.3-.3.2h-.1l-.1.2-.3.2-.1.1-.1.3-.4.5-.1.2-.1.1.1.1-.1.2.1.2-.1.3v.2l.1.3a.76.76 0 0 0-.2.4v.5l-.1.5v.4l.1.4-.1.1.1.2-.1.1v.4l-.1.3.1.3-.1.2.1.1v.1c0 .3 0 .5-.1.7-.1.1-.3.2-.5.2l-.1-.6-.1-.3v-.2l-.2-.1.1-.2v-.6l-.1-.4v-.7l-.1-.6.1-.3v-.3l.1-.5-.1-.2.1-.3v-.2l-.1-.2c.1-.1.1-.3.1-.3v-.3l-.1-.2-.2-.2c-.1-.1-.3-.2-.5-.5l-.2-.1-.2-.3-.5-.4-.1-.2-.2-.2-.4-.3v-.1l-.2-.1c0-.2-.1-.3-.3-.3-.3-.2-.5-.5-.5-.8l.1-.3h.1c.1 0 .1-.1.3-.1a.9.9 0 0 1 .5.1l.1.2.2.1.2.3.3.2v.1l.3.4.2.1.7.9.2.3.7.7c0-.1 0-.2.1-.3v.1c.1-.1.1-.2.2-.3 0-.1.1-.2.2-.3 0-.1.1-.1.2-.3h.1c.1-.2.2-.3.4-.3l.1-.2h.1c.1-.1.1-.2.2-.2l.1-.2a.55.55 0 0 1 .5-.3v-.1l.2-.2.1-.3.1.1c.1 0 .1-.1.2-.3l.4-.2.2-.2h.3l.3-.1.1.3v.4zm4.8 3.3l-.1.2v.5l-.1.1v.1l-.1.1v.2l-.1.1-.1.3h-.1v.1l-.1.1-.1.2-.1.1v.1l-.2.1c-.1.1-.2.2-.4.3-.1.2-.3.3-.4.3s-.2.1-.3.1l-.1.1h-.1l-.2.1h-.6l-.2-.1h-.5l-.2-.3-.3-.3.1-.2-.2-.4.1-.2v-.7c0-.2 0-.3.1-.3 0-.1.1-.2.2-.4h.1v-.5l.1-.1v-.2c.1-.1.1-.2.1-.3l.6-.6v-.3l.3-.1c.1-.1.2-.2.2-.4h.2c.1 0 .2-.1.2-.1h.3l.3-.1.3.3h.1l.2.1h.1l.4.4v.1h.1l.3.3.2.6v.6zm-.8.3c-.1-.1-.1-.2-.1-.2v-.1l-.1-.2v-.3c-.1-.1-.2-.1-.2-.2-.1 0-.1-.1-.1-.2h-.1l-.1-.2-.1-.1-.3-.1h-.2l-.4.6-.3.1v.1l-.1.1v.3l-.1.1v.3l-.2.2h.1c0 .1 0 .2-.1.3 0 .1-.1.2-.1.2v.2l-.1.3v.8l.1.2.2.1h.5v-.1h.3l.2-.1h.1c.1-.1.2-.2.4-.3v-.1l.2-.2.1-.2.2-.1v-.1l.1-.1v-.2l.1-.1v-.1l.1-.1v-.2c-.1-.1-.1-.2 0-.3zm8.3 1.8c0 .1-.1.2-.2.3h-.1l-.1.1-.2.1c0 .1-.1.1-.1.1-.2.1-.4.1-.6.1h-.2l-.3-.1-.2-.1-.5-.4-.1-.3-.2-.2v-.2s0-.1-.1-.2v-.3c0-.1 0-.2-.1-.4l.1-.4-.2.3h-.2v.3h-.2l-.1.3-.2.2c-.1.1-.1.1-.2.1l-.4.4-.2.3-.2.1-.1.2-.3.1-.4.2-.2-.1c-.2 0-.3-.1-.3-.2l-.1-.1v-.2l-.2-.2v-.1l-.1-.3v-1.5l.1-.1v-.5l.1-.8c0-.1 0-.3-.1-.6 0-.3.2-.4.5-.4h.3l.2.2-.1.3v.9l-.1.1v.1l-.1.2v1.1c.1 0 .1.1.1.2s0 .1-.1.2c0 .1.1.2.1.3l.1.1c.1 0 .1-.1.2-.1 0-.1.1-.1.2-.2v.4h.2v-.1l.2-.1c.1-.1.1-.1.3-.2l.2-.2c.1-.2.2-.3.3-.3l.4-.4h.1l.1-.2.3-.1.1-.1v-.1h.1c0-.1.1-.2.2-.3l.3-.6.1-.1h-.1c.1-.1.2-.3.2-.5h.3l.3.2.1.2-.1.5-.2.2-.1.5-.1.1v.2l-.1.1v.2l-.1.1v.9h.1v.3l.2.2.2.1v.1c.1 0 .1 0 .2.1h.5l.3-.2h.2c.3-.1.4 0 .4.2zm5.3-3.8l-.1.4-.4.1-.2.2-.2-.1-.4.2-.1.1-.2.1-.2.2h-.1l-.3.3-.2.3h-.1c0 .1-.1.2-.1.3l-.2.1-.2.2v.2h-.1v.2l.1.1-.2.1v.2l-.1.2.1.2-.2.2v.4l.2.2-.2.3-.1.1-.3.2-.4-.2v-1.2c-.1-.1-.1-.1-.1-.2s0-.1.1-.2V110l-.1-.1v-1l-.1-.2.1-.2v-.5s-.1-.1-.1-.2c0-.2.2-.3.5-.4l.3.1.2.4v.3c0 .2.1.3.1.5v.3s0 .1-.1.2v.7c0-.1.1-.1.1-.2v-.2l.1-.1v-.2l.2-.1v-.1l.1-.1.1-.2c.1-.1.2-.2.3-.2l.1-.2h.1v-.1l.2-.2h.2v-.1l.1-.1.2-.1.3-.1h.7c.5 0 .6.1.6.3zm8-.4l-.1.2.1.3-.2.2-.1.3v.2c0 .1 0 .2-.1.3v.5l-.1.1v.2l.1.1-.1.1v.2l-.1.2.1.2-.1.1.1.1-.2.3h.1l-.1.3v.1h.2l.2.2-.1.2h.1c0 .1.1.2.1.3l-.4.4-.2.1-.1-.1-.1.1-.4-.4v-.3c0-.2-.1-.3-.1-.4v-.1l-.1-.7.1-.5-.1-.3-.2.3-.1.3h-.1l-.2.3-.4.4-.3.2-.1.2-.4.2-.4.5h-.2l-.2.1c-.2 0-.4-.1-.5-.2-.4-.2-.5-.4-.6-.8h.1v-.2l-.1-.2.1-.2v-.3l.1-.4v-.2c0-.1 0-.1.1-.3h.1l-.1-.1v-.2c0-.1 0-.2.1-.2 0-.1.1-.2.1-.2l-.1-.1.1-.2c0-.2.1-.3.2-.4v-.4c0-.1.1-.2.3-.4s.2-.3.3-.4l.1.1.1-.1h.1l.4-.2h.9v.1l.3.1c.2 0 .3.1.4.2v-.1l.3.2h.2l.4-.1.2.3.6-.1zm-1.1.6l-.1-.1-.4-.3h-.9l-.3.1v.1l-.3.3-.1.3v.1l.1.2-.2.2c-.1.2-.1.3-.1.4l-.1.1v.2l-.1.1v.7l-.1.2v.1l-.1.1.1.2-.1.2v.2h.1l.1-.1v-.1h.2v-.1l.7-.6h.1l.1-.2s.1 0 .2-.1l.1-.2h.1v-.2h.2s0-.1.1-.1l.1-.1.6-.8.1-.2.1-.1v-.1l.1-.1-.3-.3z"/><use xlink:href="#F"/><use xlink:href="#F" x="5.6"/><path d="M352.8 110.6c0 .2 0 .3-.1.3h-.1l-.1.2-.2.1c-.1.1-.1.2-.3.3h-.1l-.2.2h-.1c-.1.1-.2.2-.3.2l-.1.1c-.1.1-.2.1-.4.1h-.1l-.1.1h-.2l-.2.1-.5-.4-.2-.5v-.7l.1-1.1v-.3c0-.1 0-.2.1-.4l.1-.3s0-.1-.1-.2l.1-.2v-.3c0-.1-.1-.2-.1-.2v-.4c0-.2.1-.3.3-.3h.1c.1 0 .2-.1.2-.1.2 0 .3.1.3.3v.5l-.1.6.1.2c0 .1 0 .3-.1.4v.1l-.2.5c0 .2 0 .4-.1.5v.3l-.1.2v.6l.2.1h.4l.1-.1v-.1h.1v-.1h.1l.1-.1h.1v-.2h.1l.2-.1c.2-.1.4-.2.5-.2.7.2.7.2.8.3zm-1.3-6.3c0 .1-.1.2-.2.3-.2.2-.3.3-.4.3l-.2.2-.1.2-.3.1-.1.2-.2.1-.3.3-.2-.2v-.3l.1-.2c0-.1.1-.2.2-.3h.1v-.2h.2v-.1h.1c0-.2.1-.3.2-.3l.1-.1.1-.3c.7-.2.9 0 .9.3zm9.6 6.1c0 .1-.1.1-.2.3l-.1.2v.2h-.1v.1c-.1 0-.2.1-.3.3-.1.1-.2.2-.3.2l-.2.2h-.1l-.3.2h-.7l-.1-.1c-.1-.1-.2-.1-.2-.2-.1 0-.2-.1-.2-.2-.1-.2-.2-.3-.2-.4l-.1-.1-.2-.4v-.3l-.1-.2-.2-1v-.4l-.1-.1-.1.1-.4.5-.2.2-.2.4-.1.1v.1l-.2.4-.1.1h-.1l-.1.1c0 .2-.1.3-.2.3-.1.2-.2.3-.2.3l-.1.2-.3.3c0 .1-.1.1-.1.2 0 0 0 .1-.1.1 0 .1-.1.2-.3.3h-.1c-.2 0-.3-.1-.4-.3l-.2-.3.1-.3v-.4l-.1-.3.1-.1v-.2l.1-.2v-.3l.1-.2V108l.2-.4c.2 0 .4.1.5.2s.1.2.1.4v.1l.1.1v.8l-.1.2v.5l-.1.1.1.2-.1.1v.1l.1.1-.1.3v.2l.1.1.2-.2c0-.1 0-.2.1-.2 0-.1 0-.1.1-.2l.2-.1v-.1l.2-.1v-.1l.2-.2v-.1l.2-.2.1-.2v-.1l.2-.1v-.4l.2-.2v-.1c0-.1.1-.2.2-.2l.4-.4c.1-.1.2-.2.3-.2l.1-.1h.3l.1.2.1.1h.1v.3l.2.1-.1.3.1.3v.3l.1.5v.4l.2.6s.1.1.1.2l.2.1v.2l.1.1v.1-.1h.1c.1 0 .2-.1.3-.2h.1v-.1c0-.1.1-.1.1-.1h.1v-.1c.1-.1.1-.1.2-.3l.1-.1v-.1l.1-.2.2-.1.3.1.3.3zm4.9 1l-.1.2-.1.3-.1.1-.1.2h-.2l-.2.2h-.2l-.1.1h-.3v.1h-.6l-.1.1-.1-.1h.2-.7l-.2.1s-.1 0-.3-.1h-.8l-.2-.1h-.2c-.3 0-.4-.3-.4-.7v-.1l.2-.2.3-.1.2.1h.2c.1 0 .1.1.2.2h.1v.2h.2l1.5-.1.4-.1v-.1h.2c.2 0 .3-.1.5-.1v-.2h-.1l-.2-.1h-.1l-.1-.1h-.1l-.1-.1h-.1c-.1 0-.2 0-.3-.1h-.2l-.2.1-.1-.1-.2-.1-.4-.1-.1-.1-.5-.1v-.1l-.3-.2-.3-.6v-.7c0-.2.1-.3.2-.5.1-.1.2-.2.2-.3h.2c0-.1.1-.1.2-.2l.2-.1.8-.3h.3l.4-.1h.8v.1c.1 0 .2.1.2.2v.1l.2.1-.1.3v.1c0 .2-.2.3-.3.3s-.3-.1-.3-.2h-.3l-.5-.4-.1.1c-.1 0-.2 0-.3.1-.1 0-.2.1-.3.2h-.2l-.1.1h-.3l-.1.1-.1.2-.1.1c0 .1-.1.2-.1.3v.2s.1.1.2.1v.1l.2.1c.1 0 .2.1.3.2h.2l.2.1h.3l.1.1.5.1.1.1v-.1c.1 0 .2 0 .4.1h.2v.1h.2l.3.2c0 .1.1.2.3.3l.1.1v.1c0 .1.1.2.1.3zm4.2-.8c0 .2 0 .3-.1.3h-.1l-.1.2-.2.1c-.1.1-.1.2-.3.3h-.1l-.2.2h-.1c-.1.1-.2.2-.3.2l-.1.1c-.1.1-.2.1-.4.1h-.1l-.1.1h-.2l-.2.1-.5-.4-.2-.5v-.7l.1-1.1v-.3c0-.1 0-.2.1-.4l.1-.3s0-.1-.1-.2l.1-.2v-.3c0-.1-.1-.2-.1-.2v-.4c0-.2.1-.3.3-.3h.1c.1 0 .2-.1.2-.1.2 0 .3.1.3.3v.5l-.1.6.1.2c0 .1 0 .3-.1.4v.1l-.2.5c0 .2 0 .4-.1.5v.3l-.1.2v.6l.2.1h.4l.1-.1v-.1h.1v-.1h.1l.1-.1h.1v-.2h.1l.2-.1c.2-.1.4-.2.5-.2.7.2.8.2.8.3zm-1.2-6.3c0 .1-.1.2-.2.3-.2.2-.3.3-.4.3l-.2.2-.1.2-.3.1-.1.2-.2.1-.3.3-.2-.2v-.3l.1-.2c0-.1.1-.2.2-.3h.1v-.2h.2v-.1h.1c0-.2.1-.3.2-.3l.1-.1.1-.3c.6-.2.9 0 .9.3zm7.5 7.2l-.1.5-.1.1c-.1.2-.3.3-.4.3s-.2-.1-.4-.2l-.2-.3-.1-.2v-.2l-.1-.4v-1.4l-.3.4-.2.3-.3.4-.9.9-.4.3-.1.2-.3.1-.1.1h-.3l-.2.1h-.4l-.4-.3a.76.76 0 0 1-.2-.4s-.1 0-.1-.1l-.1-.2.1-.1-.1-.1.1-.2v-.2l.1-.3v-.4l.1-.1v-.3l.1-.2v-.4l.1-.2v-.2l.1-.1v-.4l.1-.3.1-.1v-.2l.2-.2s.1-.1.1-.3l.3-.1.2-.2.6-.2h.3v-.1h.5l.1.1h.4v.1h.2l.5.5v-.2l.1-.2v-.8l-.1-.2.1-.1v-.7l-.1-.1.2-.2v-.1a.76.76 0 0 0-.2-.4h.1l.1-.2h.3c.1 0 .2 0 .3.1.1 0 .2.2.2.6h-.1l.1.1-.1.2.1.2-.1.1v.4l.1.1v.2c0 .1 0 .2-.1.2 0 .5-.1.8-.1.9v.4c0 .1 0 .2-.1.3v.4l-.1.1v.5l-.1.4v1l.1.1-.1.2.1.3v.3l.1.1h.2l.6.2zm-1.8-2.9c-.1-.1-.2-.1-.2-.2s-.1-.1-.1-.2c-.1 0-.1-.1-.2-.2h-.1l-.2-.1-.3-.1h-.3l-.3.2-.1-.1h-.2l-.3.3-.1.2-.1.1-.1.2v.4l-.1.1v.2l-.1.1v.3l-.2.4v.5l.1.1-.1.1.1.1-.1.2.1.1v.1h.2l.1-.1h.1l.2-.1v-.1l.2-.1v-.1l.5-.5.1-.2h.2l.3-.3.1-.3.1-.1.1-.3.2-.1.1-.2v-.2l.2-.1h.2zm6.7 2.8c0 .1-.1.2-.2.4 0 .1-.1.2-.2.3h-.1l-.1.2h-.2l-.2.1-.1.2h-.1c-.1 0-.2.1-.2.1l-.1.1h-.1c-.1 0-.2.1-.3.2l-.2-.1h-.1c-.1 0-.2 0-.3-.1h-.2l-.1-.1c-.3 0-.5-.2-.6-.3l-.1-.1-.1-.2-.1-.1v-.2l-.1-.5v-.4l.1-.2v-.2l.1-.2v-.1l.1-.1c0-.1 0-.1.1-.2v-.4a.76.76 0 0 1 .2-.4v-.5c0-.1 0-.2.1-.3.1.1.2.1.3.1l.1-.1c.1-.2.2-.4.3-.5 0 0 0-.1.1-.3h.1v-.1h.1c0-.1.1-.1.1-.1s.1-.1.3-.2c0-.1.1-.1.1-.2h.1v-.1c.2-.1.4-.1.4-.1h.4c.1.1.2.1.3.2l.2.2c.2.1.3.3.3.6v.5l-.1.1-.1.3-.2.3v.2c-.3.2-.5.3-.7.4-.1.1-.2.2-.3.2l-.2.1h-.2l-.3.1-.2-.1v.3l-.1.1v.1l-.1.2v.6c0 .1 0 .1.1.2 0 .1.1.2.1.2l.1.1.3.1h.7l.1-.1h.1l.1-.2h.1l.3-.1c0-.1.1-.1.2-.1v-.1c.2 0 .3-.1.3-.2a.76.76 0 0 1 .4-.2c-.5.4-.5.6-.5.7zm-1.2-3.5v-.1h-.1l-.1.1h-.2l-.2.3-.1.1-.2.3-.1.1c0 .1-.1.3-.2.3v.1c.1-.1.2-.1.3-.1h.1v-.1h.2l.1-.1h.2l.1-.2h.1v-.1h.2v-.1l.2-.2c-.3-.2-.3-.2-.3-.3z"/><path d="M304.8 124l-.1.2v.5l-.1.1v.1l-.1.1v.2l-.1.1-.1.3h-.1v.1l-.1.1-.1.2-.1.1v.1l-.2.1c-.1.1-.2.2-.4.3-.1.2-.3.3-.4.3s-.2.1-.3.1l-.1.1h-.1l-.2.1h-.4l-.2-.1h-.5l-.2-.3-.3-.3.1-.2-.2-.4.1-.2v-.7c0-.2 0-.3.1-.3 0-.1.1-.2.2-.4h.1v-.3l.1-.1v-.2c.1-.1.1-.2.1-.3l.6-.6v-.3l.3-.1c.1-.1.2-.2.2-.4h.2c.1 0 .2-.1.2-.1h.3l.3-.1.3.3h.1l.2.1h.1l.4.4v.1h.1l.3.3.2.6v.1l-.2.3zm-.8.3c-.1-.1-.1-.2-.1-.2v-.1l-.1-.2v-.3c-.1-.1-.2-.1-.2-.2-.1 0-.1-.1-.1-.2h-.1l-.1-.2-.1-.1-.3-.1h-.2l-.4.6-.3.1v.1l-.1.1v.3l-.1.1v.3l-.2.2h.1c0 .1 0 .2-.1.3 0 .1-.1.2-.1.2v.2l-.1.3v.8l.1.2.2.1h.5v-.1h.3l.2-.1h.1c.1-.1.2-.2.4-.3v-.1l.2-.2.1-.2.2-.1v-.1l.1-.1v-.3l.1-.1v-.1l.1-.1v-.2c-.1 0-.1-.1 0-.2zm6.4.6l-.1.1v.3l-.3.3v.1l-.1.1.1.1-.2.2-.2.3-.3.1c-.1.1-.2.1-.3.2l-.1.2-.1-.1-.1.2s0-.1-.1-.2h-.1l-.2.2h-.2l-.3.1-.2-.1h-.1c-.1 0-.3 0-.5-.1l-.2-.1-.1-.1-.2-.1-.1-.3c-.1 0-.3 0-.4-.1l-.3-.5.1-.1-.1-.1v-.2l-.1-.1.1-.1c0-.1-.1-.2-.1-.2v-1.5l.1-.3-.1-.1v-.3l.1-.1v-.3l.1-.4-.1-.5v-.8l-.1-.3c0-.1 0-.1.1-.1 0 0 0-.1-.1-.1l.1-.1c0-.1 0-.1-.1-.2v-.3l.1-.1-.2-.4h.2l.4-.2.2.3v.1l.2.1v.5c.1.1.1.1.1.2v.3l.1.2v.1l.2.1-.1.2-.1.3v1.1s.1.1.1.2l-.1.3v1.1h.2v-.4l.1-.3.1-.2a.76.76 0 0 1 .2-.4s0-.1.1-.1v-.1l.1-.2.2-.2c0-.1 0-.2.1-.2v-.1h.3v-.3h.3l-.1-.1h.2l.2-.2h.4l.2.1h.1l.2.3v.1h.1v.3l.1.1v.2l.1.1h.1v.4s0 .1.1.2c0 .1.1.1.1.2v.1l.1.1c0 .1 0 .2-.1.3v1.4l.2-.1zm-.8-.9v-.4l-.1-.6-.1-.4-.2-.3-.3-.4h-.1v.1h-.1c0 .1-.1.2-.3.2-.1.1-.1.2-.3.4l-.1.1-.1.2-.1.1-.1.3a.76.76 0 0 1-.2.4l-.1.1v.2l-.2.3-.1.4h-.1v.1c0 .1 0 .3-.1.4l.1.2-.2.1-.1.1.3.1.2.1h.2l.2.1v.2h.5c0-.1.1-.1.2-.1h.1v-.1h.3c.1-.2.2-.4.4-.6v-.1l.1-.3v-.8l.4-.1zm3.5 3l-.1.3v.9l.1.3-.1.1v.2s0 .2-.1.4c0 .3-.1.5-.2.7 0 .2-.1.3-.3.4h-.1l-.1.1v.1l-.3.1s0 .1-.1.1h-.3l-.2.1h-.2l-.1.1-.4-.2h-.1l-.1-.1h-.3l-.1-.1h-.1l-.4-.2-.2-.2h-.1c-.1 0-.1 0-.1-.1s-.1-.1-.1-.2l-.2-.1-.1-.2h-.1l-.1-.3v-.2c0-.1 0-.2.1-.2h.4l.2.2.2.1v.1l.2.1v.1h.1v.1l.2.1h.2l.1.1.3.1h.2v.1s.1 0 .1.1h.5c.1-.1.2-.1.2-.1l.2-.1v-.1l.1-.1v-.1l.1-.1.1-.3v-.1l.2-.5v-.2l-.1-.1c.1-.2.1-.3.2-.3-.1-.2-.1-.3-.1-.5v-.1c0-.1 0-.2.1-.4l-.1-.3v-.2l-.1-.3.1-.1v-1.5l-.1-.4.1-.2-.1-.3v-.1l-.1-.5v-.6l-.1-.1v-.1l-.1-.2.2-.2c.1-.2.2-.3.3-.3s.2.1.3.2c.2 0 .3.1.3.3v.3l-.1.1v.3l-.1.3.1.2-.1.4.1.5-.1.2c0 .1.1.2.1.2 0 .1 0 .1-.1.2 0 .1 0 .4.1.7v.6c.1.1.1.3.1.4v.3l.2.3zm.3-8.4l-.2.1-.1.1h-.1c0 .1-.1.2-.3.2l-.4.4-.1.2c-.1.2-.3.3-.6.5-.1-.2-.1-.3-.1-.5v-.3l.2-.4.2-.2.2-.4v-.2l.2-.1.1-.2h.6v.1h.1c.1 0 .2.1.2.2l.1.5zm5.1 7.2c0 .1-.1.2-.2.4 0 .1-.1.2-.2.3h-.1l-.1.2h-.2l-.2.1-.1.2h-.1c-.1 0-.2.1-.2.1l-.1.1h-.1c-.1 0-.2.1-.3.2l-.2-.1h-.1c-.1 0-.2 0-.3-.1h-.2l-.1-.1c-.3 0-.5-.2-.6-.3l-.1-.1-.1-.2-.1-.1v-.2l-.1-.5v-.4l.1-.2v-.2l.1-.2v-.1l.1-.1c0-.1 0-.1.1-.2v-.4a.76.76 0 0 1 .2-.4v-.5c0-.1 0-.2.1-.3.1.1.2.1.3.1l.1-.1c.1-.2.2-.4.3-.5 0 0 0-.1.1-.3h.1v-.1h.1c0-.1.1-.1.1-.1s.1-.1.3-.2c0-.1.1-.1.1-.2h.1v-.1c.2-.1.4-.1.4-.1h.4c.1.1.2.1.3.2l.2.2c.2.1.3.3.3.6v.5l-.1.1-.1.3-.2.3v.2c-.3.2-.5.3-.7.4-.1.1-.2.2-.3.2l-.2.1h-.2l-.3.1-.2-.1v.3l-.1.1v.1l-.1.2v.6c0 .1 0 .1.1.2 0 .1.1.2.1.2l.1.1.3.1h.7l.1-.1h.1l.1-.2h.1l.3-.1c0-.1.1-.1.2-.1v-.1c.2 0 .3-.1.3-.2a.76.76 0 0 1 .4-.2c-.5.4-.5.6-.5.7zm-1.1-3.5v-.1h-.1l-.1.1h-.2l-.2.3-.1.1-.2.3-.1.1c0 .1-.1.3-.2.3v.1c.1-.1.2-.1.3-.1h.1v-.1h.2l.1-.1h.2l.1-.2h.1v-.1h.2v-.1l.2-.2c-.4-.2-.3-.2-.3-.3z"/><path d="M323.7 124.9l-.2.2v.1c0 .1-.1.3-.2.3-.2.4-.5.6-.8.8l-.2.1h-.2l-.2.1h-.1l-.3.2h-.2l-.2.1-.2-.1-.1.1h-.4l-.1-.1h-.2l-.5-.5c-.1-.2-.2-.3-.2-.4l-.1-.2v-.6l-.1-.2.1-.1v-.1l.1-.2v-.2l.1-.3v-.4l.1-.2v-.1l.1-.3.2-.3.2-.2v-.1l.1-.1v-.1l.2-.2h.2c0-.2.2-.2.6-.3.3.1.5.1.6.3.1 0 .2.1.2.1h.3l.2.2c0 .1.1.2.1.2l.1.1v.5h.1v.6c-.2.2-.4.3-.6.3-.1-.2-.3-.4-.4-.5v-.4l-.1-.1v-.1l-.1-.1h-.4c-.1 0-.2.1-.3.2s-.2.3-.3.4v.1l-.1.1v.2l-.2.2-.2.5v.1l-.1.2v.3h-.1v.4l.1.1.1.3h.2v.1h.7c.1 0 .2-.1.3-.1s.1 0 .2-.1.2-.2.4-.2h.1s.1 0 .1-.1c.1-.1.2-.2.4-.3.2-.2.4-.4.4-.5.1-.1.2-.2.2-.3h.1v-.3c.4.3.5.5.5.9z"/><use xlink:href="#G"/><path d="M336.2 125.8l-.1.2-.1.3-.1.1-.1.2h-.2l-.2.2h-.2l-.1.1h-.3v.1h-.6l-.1.1-.1-.1h.2-.7l-.2.1s-.1 0-.3-.1h-.8l-.2-.1h-.2c-.3 0-.4-.3-.4-.7v-.1l.2-.2.3-.1.2.1h.2c.1 0 .1.1.2.2h.1v.2h.2l1.5-.1.4-.1v-.1h.2c.2 0 .3-.1.5-.1v-.2h-.1l-.2-.1h-.1l-.1-.1h-.1l-.1-.1h-.1c-.1 0-.2 0-.3-.1h-.2l-.2.1-.1-.1-.2-.1-.4-.1-.1-.1-.5-.1v-.1l-.3-.2-.4-.8v-.7c0-.2.1-.3.2-.5.1-.1.2-.2.2-.3h.2c0-.1.1-.1.2-.2l.2-.1.8-.3h.3l.4-.1h.8v.1c.1 0 .2.1.2.2v.1l.2.1-.1.3v.1c0 .2-.2.3-.3.3s-.3-.1-.3-.2h-.3l-.2-.1-.1.1c-.1 0-.2 0-.3.1-.1 0-.2.1-.3.2h-.2l-.1.1h-.3l-.1.1-.1.2-.1.1c0 .1-.1.2-.1.3v.2s.1.1.2.1v.1l.2.1c.1 0 .2.1.3.2h.2l.2.1h.3l.1.1.5.1.1.1v-.1c.1 0 .2 0 .4.1h.2v.1h.2l.3.2c0 .1.1.2.3.3l.1.1v.1c-.1 0-.1.1-.1.2z"/><use xlink:href="#G" x="12.7"/><path d="M345.7 124l-.1.2v.5l-.1.1v.1l-.1.1v.2l-.1.1-.1.3h-.1v.1l-.1.1-.1.2-.1.1v.1l-.2.1c-.1.1-.2.2-.4.3-.1.2-.3.3-.4.3s-.2.1-.3.1l-.1.1h-.1l-.2.1h-.4l-.2-.1h-.5l-.2-.3-.3-.3.1-.2-.2-.4.1-.2v-.7c0-.2 0-.3.1-.3 0-.1.1-.2.2-.4h.1v-.3l.1-.1v-.2c.1-.1.1-.2.1-.3l.6-.6v-.3l.3-.1c.1-.1.2-.2.2-.4h.2c.1 0 .2-.1.2-.1h.3l.3-.1.3.3h.1l.2.1h.1l.4.4v.1h.1l.3.3.2.6v.1l-.2.3zm-.8.3c-.1-.1-.1-.2-.1-.2v-.1l-.1-.2v-.3c-.1-.1-.2-.1-.2-.2-.1 0-.1-.1-.1-.2h-.1l-.1-.2-.1-.1-.3-.1h-.2l-.4.6-.3.1v.1l-.1.1v.3l-.1.1v.3l-.2.2h.1c0 .1 0 .2-.1.3 0 .1-.1.2-.1.2v.2l-.1.3v.8l.1.2.2.1h.5v-.1h.3l.2-.1h.1c.1-.1.2-.2.4-.3v-.1l.2-.2.1-.2.2-.1v-.1l.1-.1v-.3l.1-.1v-.1l.1-.1v-.2c-.2 0-.1-.1 0-.2zm6.2-2l-.1.4-.4.1-.2.2-.2-.1-.4.2-.1.1-.2.1-.2.2h-.1l-.3.3-.2.3h-.1c0 .1-.1.2-.1.3l-.2.1-.2.2v.2h-.1v.2l.1.1-.2.1v.2l-.1.2.1.2-.2.2v.4l.2.2-.2.3-.1.1-.3.2-.4-.2v-1.2c-.1-.1-.1-.1-.1-.2s0-.1.1-.2v-1.1l-.1-.1v-1l-.1-.2.1-.2v-.5s-.1-.1-.1-.2c0-.2.2-.3.5-.4l.3.1.2.4v.3c0 .2.1.3.1.5v.3s0 .1-.1.2v.7c0-.1.1-.1.1-.2v-.2l.1-.1v-.2l.2-.1v-.1l.1-.1.1-.2c.1-.1.2-.2.3-.2l.1-.2h.1v-.1l.2-.2h.2v-.1l.1-.1.2-.1.3-.1h.7c.5 0 .6.1.6.3zm4.9-.4l-.1.2.1.3-.2.2-.1.3v.2c0 .1 0 .2-.1.3v.5l-.1.1v.2l.1.1-.1.1v.2l-.1.2.1.2-.1.1.1.1-.2.3h.1l-.1.3v.1h.2l.2.2-.1.2h.1c0 .1.1.2.1.3l-.4.4-.2.1-.1-.1-.1.1-.4-.4v-.2c0-.2-.1-.3-.1-.4v-.1l-.1-.7.1-.5-.1-.3-.2.3-.1.3h-.1l-.2.3-.4.4-.3.2-.1.2-.4.2-.4.5h-.2l-.2.1c-.2 0-.4-.1-.5-.2-.4-.2-.5-.4-.6-.8h.1v-.2l-.1-.2.1-.2v-.3l.1-.4v-.2c0-.1 0-.1.1-.3h.1l-.1-.1v-.2c0-.1 0-.2.1-.2 0-.1.1-.2.1-.2l-.1-.1.1-.2c0-.2.1-.3.2-.4v-.4c0-.1.1-.2.3-.4.1-.2.2-.3.3-.4l.1.1.1-.1h.1l.4-.2h.9v.1l.3.1c.2 0 .3.1.4.2v-.1l.3.2h.2l.4-.1.2.3.6-.2zm-1.1.6l-.1-.1-.4-.3h-.9l-.3.1v.1l-.3.3-.1.3v.1l.1.2-.2.2c-.1.2-.1.3-.1.4l-.1.1v.2l-.1.1v.7l-.1.2v.1l-.1.1.1.2-.1.2v.2h.1l.1-.1v-.1h.2v-.1l.7-.6h.1l.1-.2s.1 0 .2-.1l.1-.2h.1v-.2h.2s0-.1.1-.1l.1-.1.6-.8.1-.2.1-.1v-.1l.1-.1-.3-.3zm8.3 2.8l-.1.4v.1c0 .1.1.1.1.2v.1c0 .1 0 .5-.1 1.2v.6c0 .1 0 .1-.1.2l-.1.2c0 .1-.1.2-.1.2-.1.1-.2.2-.3.4l-.4.4-.2.1-.1.1h-.1c-.2.1-.3.1-.5.2h-1l-.3-.1-.3.1-.1-.1h-.4l-.2-.2-.2-.1a.9.9 0 0 1-.6-.6v-.2c.1-.2.2-.2.3-.2s.1-.1.2-.1c.3 0 .5.1.7.1v.2l.1.1v.1l-.1.1.6.2.3-.1v.1h.3l.1-.1c.1 0 .3-.1.6-.1l.1-.1h.2s.1 0 .1-.1h.1l.4-.3.2-.3v-.2l.1-.2v-.2l.1-.1.2-.6v-.2c0-.2 0-.4.1-.5l-.1-.2v-.6l-.1-.2v-.3l-.1-.3v-.5h-.1l-.1.2-.2.2-.2.3-.3.2-.3.3c-.2.2-.4.4-.7.5l-.1.1-.4.2-.2.2-.2.1c-.1.1-.2.1-.3.1-.2.1-.4.2-.6.2h-.6l-.3-.3-.2-.3-.1-.3-.1-.5v-.3l.1-.4v-.1l.1-.4.1-.2v-.4l.3-.5c0-.1.1-.1.2-.2l.2-.4c0-.1.1-.2.2-.3.1 0 .1-.1.1-.2s.2-.2.5-.2h-.1.1l.2-.2h.1l.1-.1a.76.76 0 0 1 .4-.2h.1l.3-.1.2.1h.2l.1.1c.1 0 .1 0 .2.1l.2.2.1.2v.4l-.2.2h-.3l-.2-.3-.2-.1-.1-.1h-.1s-.1.1-.3.1v.1h-.3c-.1.1-.2.2-.3.2l-.1.1-.1.2h-.1v.1h-.2l-.2.3-.1.1v.2l-.2.3v.2l-.1.1-.1.5-.1.1v.1l-.1.5v.2c.1.1.1.2.1.3h.1v.1h.3c.1-.1.3-.1.6-.2 0-.1.1-.2.2-.2s.3-.2.5-.3c0-.1 0-.1.1-.2.1 0 .2-.1.2-.1.1 0 .1-.1.1-.2h.2l.1-.1.3-.4h.1l.6-.6v-.2c.1-.1.2-.3.3-.8l-.1-.3-.1-.2.1-.2-.1-.1v-.3l.1-.2c.1-.1.2-.1.3-.1s.2 0 .3.1l.1.2.2.1v.3c0 .1.1.2.1.3s.1.2.1.3v.2l.1.2v.2l.1.1v.3h.1l-.1.3v.2c0 .1.1.2.1.2 0 .1 0 .1-.1.2l.1.1v1.2zm5.2.5c0 .1-.1.2-.2.4 0 .1-.1.2-.2.3h-.1l-.1.2h-.2l-.2.1-.1.2h-.1c-.1 0-.2.1-.2.1l-.1.1h-.1c-.1 0-.2.1-.3.2l-.2-.1h-.1c-.1 0-.2 0-.3-.1h-.2l-.1-.1c-.3 0-.5-.2-.6-.3l-.1-.1-.1-.2-.1-.1v-.2l-.1-.5v-.4l.1-.2v-.2l.1-.2v-.1l.1-.1c0-.1 0-.1.1-.2v-.4a.76.76 0 0 1 .2-.4v-.5c0-.1 0-.2.1-.3.1.1.2.1.3.1l.1-.1c.1-.2.2-.4.3-.5 0 0 0-.1.1-.3h.1v-.1h.1c0-.1.1-.1.1-.1s.1-.1.3-.2c0-.1.1-.1.1-.2h.1v-.1c.2-.1.4-.1.4-.1h.4c.1.1.2.1.3.2l.2.2c.2.1.3.3.3.6v.5l-.1.1-.1.3-.2.3v.2c-.3.2-.5.3-.7.4-.1.1-.2.2-.3.2l-.2.1h-.9l-.3.1-.2-.1v.3l-.1.1v.1l-.1.2v.6c0 .1 0 .1.1.2 0 .1.1.2.1.2l.1.1.3.1h.7l.1-.1h.1l.1-.2h.1l.3-.1c0-.1.1-.1.2-.1v-.1c.2 0 .3-.1.3-.2a.76.76 0 0 1 .4-.2l.2.7zm-1.2-3.5v-.1h-.1l-.1.1h-.2l-.2.3-.1.1-.2.3-.1.1c0 .1-.1.3-.2.3v.1c.1-.1.2-.1.3-.1h.1v-.1h.2l.1-.1h.2l.1-.2h.1v-.1h.2v-.1l.2-.2c-.3-.2-.3-.2-.3-.3z"/></g><radialGradient id="D" cx="174.474" cy="46" r="24.481" gradientTransform="matrix(1 0 0 -1 0 190)" gradientUnits="userSpaceOnUse"><stop offset="0" stop-color="#b3b3b3"/><stop offset=".846" stop-color="gray"/></radialGradient><g class="T V"><path d="M173 120.2l7-1.2-.4 10.8c2-.4 4.2.3 5.5 1.8 2.1-2.4 4.6-4.4 7.4-5.9l3.9 7.6-7.9 4.6c1.1 2.1 1.5 4.5 1.3 6.9 2.9-.2 5.9.1 8.7 1l-.2 7-8.4-1.7a10.64 10.64 0 0 1-3.4 6.2c1.5 2.3 3.4 4.2 5.6 5.8l-6.5 5.5c-2.5-2-4.6-4.6-6-7.5-2.2.9-4.7 1.3-7 1l-.3 6.9-8.5-1.7.2-6.6c-2.4-1.3-4.1-3.6-4.8-6.3h-8.5l-.1-6.5 8.6.2c-.1-2.4.5-4.8 1.9-6.7l-8.4-4.6 3.9-4.7 6.2 3.9c1.4-1.6 3.3-2.8 5.3-3.3-1.9-1.9-3.3-4.2-4.3-6.7l4-1.7c1.5 2.3 2.4 5.1 2.5 7.8-.1-1.1 4.1-1.8 4.5-3.2.3-2.1-1.4-6.5-1.8-8.7z" fill="url(#D)"/><path d="M173.2 145c-1.4.9-2.2 2.9-1.3 4.3.7 1.1 2.3 1.5 3.4.8s1.5-2.3.9-3.4c-.7-1.1-2.3-1.6-3.4-.9m30.9-1.8c-1 .6-1.5 2-.9 2.9.5.8 1.6 1 2.4.6s1.1-1.6.6-2.4-1.6-1.1-2.3-.6" fill="#f2f2f2"/></g><path d="M184.8 181.6c0 .2-.1.3-.4.4l-.5-.2h-.1l-.2-.1h-.2l-.1-.2-.1-.1-.2-.3-.2-.2v-.1l-.1-.1v-.2l-.2-.1-.3-.6-.1-.1v-.3l-.2-.2h-.3l-.3.2-.1-.1-.2.1-.1-.1h-.5l-.3.1h-.3l-.2.1-.2-.1h-.4l-.3.1-.1-.1-.2-.1c-.2.2-.3.4-.4.5h-.2c-.3.4-.5.7-.6.7l-.4.5-.2.4-.5.3h-.2c-.2 0-.3-.1-.4-.2l.1-.3v-.5h.4l.1-.1c.1-.1.2-.1.2-.3.1 0 .2-.1.3-.2.2-.1.4-.3.4-.5l.2-.1.3-.4c-.1-.1-.1-.2-.1-.3l.3-.2v-.2h.5l.1-.1c0-.1.1-.2.2-.3v-.2l.3-.1s.1 0 .1-.1v-.3a.55.55 0 0 0 .3-.5h.2l.1-.1h.1l.2-.4h.2v-.3h.1c.2-.2.3-.4.3-.4h.1l-.1-.2c.2-.2.3-.4.5-.4l.2-.2.3.3.3.2v.3l.1.1a.76.76 0 0 1 .2.4l.1.3.2.3.1.4v.2l.2.3v.1l.1.1v.5l.2.2h.7s.1 0 .1-.1c.1 0 .1-.1.2-.1s.2 0 .4.1h.4v.1c0 .1-.1.2-.2.3l-.2-.1-.3.2h-.3l-.1.1h-.3l-.3.1v.4l.2.2v.2l.3.4v.1l.1.1.3.4.2.2v.1l.2.1.1.2.4.1zm-3-3.3l-.1-.1.1-.1c-.1-.1-.1-.1-.1-.3h-.1l-.1-.5-.1-.2v-.2h-.1v-.4l-.1-.2h-.1v.1l-.3.4-.1.2-.2.2v.2l-.3.1c0 .2-.2.4-.4.5l-.1.2-.2.2h.1c.1 0 .3.1.4.1h1.2l.3.1.3-.3zm10.1-1.1l-.1.4-.2.2v.2c-.1 0-.1 0-.2.1 0 .1-.1.2-.2.2-.1.1-.3.2-.5.2-.1.1-.2.2-.4.2l-.2.1h-.2l-.1.1h-.1l-.2.2h-.5l-.1.1-.5.1h-.3l-.3.2h-.6l-.1.1h-.1l.1.2-.1.3.1.4v.4c.2 0 .3.1.3.3s-.1.3-.4.4l-.3.1-.4-.4-.2-.5v-.5l-.2-.3.1-.1v-.2c-.2 0-.4 0-.5-.1l-.4-.6.9-.1v-.1l.1-.1.1-.5.1-.1v-1.4l.2-.3c0-.1.1-.2.2-.2h.4c.3 0 .5.1.5.4 0 .1-.1.2-.2.4v.1c0 .1.1.2.2.4h-.2v.3l-.2.1.1.2-.1.2v.4h.3c.1-.1.2-.1.4-.1l.2-.1c.1.1.1.1.2.1s.2-.1.5-.2h.2l.2-.1h.2c.2 0 .3 0 .4-.1h.3v-.1l.2-.1.1-.1h.1l.1-.2h.1s.1-.1.2-.1v-.1l.1-.1v-.1l-.1-.2-.1-.1h-.1l-.2-.2-1-.5-.2.1-.3-.2h-.3l-.2-.1h-.2l-.3-.1h-.1c-.1 0-.2 0-.3-.1h-.5l-.2-.1-.3.1-.2.1h-.4l-.2.1h-.3l-.3.2-.2-.3c-.1-.1-.1-.3-.1-.5l.1-.1c0-.1.1-.2.3-.3.1 0 .3-.1.4-.1h.2l.3-.1h.1c.1 0 .1 0 .2.1h.9l.7.1.2.1h.2l.3.1h.4v.1h.3l.3.2h.3l.1.1a.76.76 0 0 1 .4.2h.2l.1.2.1.1h.2l.2.2.5.3v.5zm2.3-1.5l-.1.5v.3l-.1.3v.2l-.1.2c0 .1-.1.2-.1.3 0 0 .1.1.1.2s0 .1-.1.2l.1.4h-.1l.1.2-.1.3-.1.2h.1v.2l.1.2-.1.2v.6c.1.1.1.2.1.2s0 .1-.1.2c0 .1-.1.1-.1.1l.3.3-.1.1.2.1c0 .3-.1.5-.3.5s-.3-.1-.4-.3l-.1-.1c-.1-.2-.2-.3-.2-.4l-.2-.3.1-.1-.1-.1v-2l.1-.6-.1-.6.1-.1h-.1l.1-.2v-.1h-.1l.1-.3c-.1-.1-.2-.3-.2-.5h.2l.1-.4.1-.2-.1.1v-.3h.2v-.1l.2-.1c.2 0 .4 0 .5.1.1.2.2.4.2.6zm6 4.7l-.1.2-.1.3-.1.1-.1.2h-.2l-.2.2h-.2l-.1.1h-.3v.1h-.8l-.1.1-.1-.1h.2-.7l-.2.1s-.1 0-.3-.1h-.8l-.2-.1h-.2c-.3 0-.4-.3-.4-.7v-.1l.2-.2.3-.1.2.1h.2c.1 0 .1.1.2.2h.1v.2h.2l1.5-.1.4-.1v-.1h.2c.2 0 .3-.1.5-.1v-.2h-.1l-.2-.1h-.1l-.1-.1h-.1l-.1-.1h-.1c-.1 0-.2 0-.3-.1h-.2l-.2.1-.1-.1-.2-.1-.4-.1-.1-.1-.5-.1v-.1l-.3-.2-.3-.6v-.7c0-.2.1-.3.2-.5.1-.1.2-.2.2-.3h.2c0-.1.1-.1.2-.2l.2-.1.8-.3h.3l.4-.1h.8v.1c.1 0 .2.1.2.2v.1l.2.1-.1.3v.1c0 .2-.2.3-.3.3s-.3-.1-.3-.2h-.3l-.2-.1-.1.1c-.1 0-.2 0-.3.1-.1 0-.2.1-.4.2h-.2l-.1.1h-.3l-.1.1-.1.2-.1.1c0 .1-.1.2-.1.3v.2s.1.1.2.1v.1l.2.1c.1 0 .2.1.3.2h.2l.2.1h.3l.1.1.5.1.1.1v-.1c.1 0 .2 0 .4.1h.2v.1h.2l.3.2c0 .1.1.2.3.3l.1.1v.1c0-.2.1-.1.1 0z" class="U"/><path d="M100.2 61.4c19.7 7.3 40.1 12.5 60.8 15.5l-11.2-10.3L162.7 81c-4.5 1.1-8.7 3.1-12.3 5.9m-63 40.3c20.5-14.6 42.9-26.7 66.3-36-2.8-1-5.5-2.1-8.3-3.1 3.1.5 6.2 1.7 8.8 3.5l-6.6 10m114.9-22.2c17.3.9 34.4 4.1 51.4 7.2-1.4-1.5-2.7-3-4.1-4.6 1.5 1.4 2.9 3 3.9 4.7l-6 2.9" stroke-width="2" class="S T V"/><defs ><path id="F" d="M339.9 110.6l-.1.4.1.2v.3l-.1.2v.2h-.2l-.3.3h-.1l-.2.1h-.1l-.2.1-.3-.1h-.5l-.3.1-.1-.1h-.3l-.1-.1h-.1v.5l-.1.1v1.2l-.1.1v.3h.1v.3c0 .1 0 .1-.1.2v.2l-.1.1v.5c0 .6-.1.8-.4.8 0 0-.2 0-.4-.1l.1-.4-.1-.5.1-.2v-.3l-.1-.4.1-.1-.1-.3.1-.1-.1-.2.1-.2s0-.1-.1-.1l-.1-.1.1-.1v-.1c0-.1 0-.2.1-.4l-.1-.1v-.2l-.1-.1.1-.1-.1-.3.1-.5-.1-.2.1-.2-.1-.1.1-.2-.1-.1v-.6l-.1-.2.1-.2-.1-.2v-.7l-.4.2v-.1h-.1l-.1.1h-.1l-.1.2h-.1l-.1.1c-.4-.2-.6-.4-.6-.6 0-.1 0-.2.1-.2v-.2c.2-.1.4-.2.6-.2l.1-.1.4-.2.1-.1h.4l.1-.4.3.1.2.3.1-.1.2.2c.1 0 .2 0 .3.1l.1.1h.1l.1.1h.1v.1l.3-.1.1.1.2.1.2.2.3.2.2.1v.1c.1 0 .1.1.1.2l.2.2h.1v.2l.1.1v.1h.1c0 .2.1.3.2.5v.1l.1.1v.2l.1.2.2-.3zm-.9.2v-.1l-.1-.2v-.3l-.1-.2v-.1l-.2-.3-.1-.1-.1-.2h-.1l-.2-.3h-.2l-.1-.2h-.1l-.1-.2h-.2l-.1.1-.1-.1h-.1v-.1h-.2v.4l.2.2-.1.3v.2l-.1.4c0 .2.1.3.2.4v.1s0 .1-.1.1l.1.1-.1.1v.6h.4c.1 0 .1 0 .2.1h.6l.2-.1.2.1h.1l.2-.2v-.2h.1v-.3z"/><path id="G" d="M328.2 122.5c0 .1-.1.1-.2.2 0 0-.1.1-.2.1s-.2.1-.2.1l-.3-.1c-.1.1-.3.1-.5.1h-.1l-.1.1h-.3l-.2.1h-.6v2.1l.2.4v.1c0 .1.1.1.3.1v.1h.1l.2.2h.4l.2-.2c.1-.1.1-.1.2-.1.1-.1.2-.2.4-.3.2 0 .3.1.4.2v.1c0 .3-.1.4-.3.5-.1.2-.2.3-.5.3l-.1.1h-.2l-.3.1h-.7l-.4-.2h-.1l-.3-.3-.4-.8-.1-.6v-.1l-.1-.1.1-.2-.1-.3.1-.1v-.5l-.1-.2.1-.1v-.2h-.3l-.2-.1c-.2 0-.4-.1-.4-.4l-.1-.2.2-.2h.5l.2.1h.3v-.3l-.2-.3.2-.1-.1-.2v-.4l-.1-.2c-.1-.1-.1-.2-.1-.2 0-.1 0-.2.1-.2v-.2l.1-.1c.2 0 .4-.1.4-.1.3 0 .4.1.4.3v.1c0 .1.1.1.1.2v.8l-.1.1.1.2v.3l.1.1-.1.2.4-.1.7.1.5-.1h.8c.2 0 .3.1.3.3z"/></defs></svg>