<?xml version="1.0" encoding="utf-8"?>
<!-- Generator: Adobe Illustrator 24.0.0, SVG Export Plug-In . SVG Version: 6.00 Build 0)  -->
<svg version="1.1" id="Layer_1" xmlns="http://www.w3.org/2000/svg" xmlns:xlink="http://www.w3.org/1999/xlink" x="0px" y="0px"
	 viewBox="0 0 387 188" style="enable-background:new 0 0 387 188;" xml:space="preserve">
<style type="text/css">
	.st0{fill:#C1272D;}
	.st1{fill:url(#SVGID_1_);}
	.st2{fill:none;stroke:#808080;stroke-width:2;stroke-miterlimit:10;}
	.st3{fill:none;stroke:#808080;stroke-width:2;stroke-miterlimit:10;stroke-dasharray:9.1564,9.1564;}
	.st4{fill:none;stroke:#808080;stroke-width:2;stroke-miterlimit:10;stroke-dasharray:8.8801,8.8801;}
	.st5{fill:url(#SVGID_2_);stroke:#000000;stroke-miterlimit:10;}
	.st6{fill:none;stroke:#000000;stroke-miterlimit:10;}
	.st7{fill:#FF6158;stroke:#000000;stroke-miterlimit:10;}
	.st8{fill:#FEBD2E;stroke:#000000;stroke-miterlimit:10;}
	.st9{fill:#2ACA42;stroke:#000000;stroke-miterlimit:10;}
	.st10{fill:#FF931E;stroke:#000000;stroke-miterlimit:10;}
	.st11{fill:#7AC943;stroke:#000000;stroke-miterlimit:10;}
	.st12{fill:#C69C6D;stroke:#000000;stroke-miterlimit:10;}
	.st13{fill:url(#SVGID_3_);stroke:#000000;stroke-miterlimit:10;}
	.st14{font-family:'BradleyHandITCTT-Bold';}
	.st15{font-size:12px;}
	.st16{fill:url(#SVGID_4_);stroke:#000000;stroke-miterlimit:10;}
	.st17{fill:#F2F2F2;stroke:#000000;stroke-miterlimit:10;}
	.st18{fill:none;stroke:#000000;stroke-width:2;stroke-miterlimit:10;}
</style>
<g>
	<g>
		<path class="st0" d="M328.4,66.5c-0.6,1.1,0,2.2,0.9,2.9c0.9,0.7,2.5,1.4,3.5,0.4c1.2-1.2-0.1-2.6-1.2-3.1c-0.8-0.4-2.1-0.8-3-0.5
			c-0.9,0.4-1.6,1.7-0.7,2.5c0.8,0.6,1.9,1,2.9,1.1c1.5,0.1,2.1-2.1,0.8-2.8c-1.3-0.6-3.1-1.6-4.5-0.8c-0.7,0.4-0.9,1.3-0.5,2.1
			c0.4,0.8,1.2,1,2,1.1c1.5,0.1,2-2.1,0.8-2.8c-0.6-0.4-1.5-0.5-2.2-0.5s-1.4,0.2-1.7,1c-0.6,1.4,0.8,2.4,2,2.4
			c-0.3-0.9-0.5-1.9-0.8-2.8c0.5-0.1,0.6-0.1,0.3-0.1c-0.1,0-0.3,0-0.4,0c-0.2,0-0.4,0-0.6,0c-0.4-0.1-0.6-0.5-0.8-0.8
			c0.1,0.4,0.3,0.7,0.4,1.1v-0.1c-0.1,0.4-0.3,0.7-0.4,1.1c0.6-0.5,1-1,1.7-1.3c1-0.4,1.9,0,3,0.1c1,0.2,1.8,0.8,2.7,1.2
			c1,0.5,2.1,0.8,3.1,1.2c0.4-0.9,0.8-1.8,1.2-2.7c-0.2,0,0.1,0.1,0,0c-0.2-0.1-0.3-0.1-0.5-0.2c-0.4-0.1-0.8-0.3-1.2-0.5
			c-0.6-0.3-1.3-0.6-1.9-0.8c0.2,0.1,0.4,0.3,0.7,0.4c0,0,0,0.1,0.1,0.1c-0.3,0.7-0.6,1.5-0.9,2.2c-0.3,0-0.3,0,0,0.1
			c0.1,0,0.2,0.1,0.3,0.1c0.2,0.1,0.4,0.2,0.6,0.3c0.5,0.2,0.9,0.4,1.4,0.6c0.9,0.4,1.7,0.6,2.2,1.4c-0.1-0.2-0.3-0.4-0.4-0.7
			c0.1,0.2,0.1,0.3,0.1,0.5c0.1,0.2,0.1,0.5,0.1,0.1c0.1-0.2,0.3-0.4,0.4-0.7c-0.1,0.1-0.1,0.1-0.2,0.2c0.2-0.1,0.4-0.3,0.7-0.4
			c-0.8,0.3-1.9,0.2-2.8,0.1c-1.1-0.1-2.1-0.1-3.2-0.2c-1-0.1-2-0.2-3-0.3c-0.9-0.1-2-0.4-2.8-1c0.2,0.2,0.4,0.4,0.5,0.5l-0.1-0.1
			c0.1,0.4,0.1,0.8,0.2,1.2c0-0.1,0-0.2,0.1-0.2c-0.2,0.3-0.5,0.6-0.7,0.9c0,0,0.1,0,0.1-0.1c-0.3,0.1-0.5,0.1-0.8,0.2
			c0.6-0.1,1.3-0.3,1.9-0.4c0.8-0.1,1.6-0.1,2.4-0.2c0.8,0,1.5,0,2.3,0c0.4,0,0.9,0,1.3,0.1c0.2,0,0.3,0,0.5,0s-0.3-0.1,0.1,0.1
			c-0.2-0.1-0.4-0.3-0.7-0.4l0.1,0.1c-0.1-0.2-0.3-0.4-0.4-0.7v0.1c0-0.3,0-0.5,0-0.8v0.1c0.2-0.3,0.5-0.6,0.7-0.9
			c0.1,0,0.1,0,0.2,0c-0.2,0-0.3,0-0.5,0s-0.5-0.1-0.7-0.1c-0.7-0.1-1.5-0.2-2.2-0.2c-0.7-0.1-1.3-0.2-2-0.2c-0.3,0-0.6-0.1-0.9-0.1
			c-0.2,0-0.3,0-0.5-0.1c-0.3-0.1-0.3,0-0.1,0.1c0.2,0.2,0.4,0.4,0.5,0.5c0,0.1,0.1,0.2,0.1,0.3c-0.1,0.3-0.1,0.5-0.2,0.8
			c-0.2,0.3,0.3,0,0.5,0c0.4-0.1,0.8-0.1,1.2,0c0.8,0,1.6,0.2,2.4,0.4c1.9,0.5,2.7-2.4,0.8-2.9c-2-0.5-4.6-1-6.5,0
			c-1,0.6-1.5,1.7-1,2.8c0.6,1.1,1.9,1,3,1.1s2.3,0.3,3.4,0.4c1,0.1,2.2,0.4,3.2,0.2c1-0.2,1.8-1.2,1.4-2.2
			c-0.4-1.2-1.6-1.3-2.7-1.4c-2.3-0.2-4.6-0.1-6.9,0.2c-0.9,0.1-2.1,0.3-2.4,1.4c-0.4,1.3,0.5,2.1,1.6,2.5c0.9,0.4,1.8,0.7,2.7,0.8
			c1.1,0.2,2.3,0.2,3.5,0.4c1,0.1,1.9,0.1,2.9,0.2c1.1,0.1,2.1,0.2,3.1,0c0.7-0.1,1.3-0.2,1.8-0.7s0.5-1.2,0.4-1.8
			c-0.3-1.1-0.8-2-1.7-2.6c-0.5-0.3-1-0.5-1.5-0.7s-0.9-0.4-1.4-0.6c-1.1-0.4-2.3-1.2-3.5-0.8c-1,0.3-1.3,1.3-0.9,2.2
			c0.1,0.2,0.2,0.4,0.4,0.5c0.1,0.1,0.3,0.2,0.5,0.3c0.2,0.1,0.2,0.1,0.1,0c0.5,0.2,0.9,0.4,1.4,0.6s1,0.5,1.5,0.6
			c0.1,0,0.1,0,0.2,0.1c-0.1-0.1-0.1-0.1,0,0c0.2,0.1,0.4,0.2,0.6,0.2c0.7,0.2,1.5-0.2,1.8-0.9c0.3-0.6,0.1-1.6-0.6-1.9
			c-0.9-0.4-1.9-0.7-2.8-1.1s-1.7-1-2.7-1.4c-0.8-0.3-1.8-0.5-2.7-0.6c-1.1-0.2-2.2-0.1-3.3,0.3c-0.8,0.3-1.5,0.9-2.1,1.4
			c-0.9,0.8-1.3,1.8-0.4,2.8c0.6,0.7,1.4,1.3,2.4,1.5c0.7,0.1,2.1,0.2,2.7-0.3c1.2-0.8,0.8-2.8-0.8-2.8c-0.1,0-0.1,0,0.1,0
			c-0.2-0.1-0.2-0.1,0,0c0.2,0.2,0.4,0.4,0.5,0.5c0,0,0,0,0-0.1c0.1,0.4,0.1,0.8,0.2,1.2c0,0,0,0,0-0.1c-0.3,0.3-0.7,0.7-1,1
			c-0.2,0.1-0.1,0,0.1,0c0.1,0,0.4,0,0.6,0.1c0.3-0.9,0.5-1.9,0.8-2.8h0.1c0.2,0.2,0.4,0.4,0.5,0.5c0,0,0-0.1-0.1-0.1
			c-0.2,0.7-0.4,1.4-0.5,2.1c-0.2,0.1-0.7,0-0.2,0.2c0.2,0.1,0.4,0.1,0.6,0.2c0.3,0.1,0.7,0.3,1,0.4c0.3-0.9,0.5-1.9,0.8-2.8
			l-0.7-0.2c-0.2,0.8-0.4,1.7-0.7,2.5c-0.3,0.1-0.1,0,0.1,0c-0.2,0,0.3,0.1,0.3,0.1c0.3,0.1,0.7,0.3,0.8,0.4
			c-0.1-0.4-0.3-0.7-0.4-1.1v0.1c0.2-0.4,0.5-0.9,0.7-1.3c0,0-0.1,0-0.1,0.1c0.4-0.1,0.8-0.1,1.2-0.2c-0.2-0.1-0.5-0.1-0.7-0.2
			c-0.1,0-0.2-0.2-0.2-0.2s0-0.2,0,0c-0.1,0.4-0.1,0.8-0.2,1.2c0,0,0-0.1,0.1-0.1C331.9,66.4,329.3,64.8,328.4,66.5L328.4,66.5z"/>
	</g>
</g>
<linearGradient id="SVGID_1_" gradientUnits="userSpaceOnUse" x1="321.0491" y1="106.25" x2="340.5491" y2="106.25" gradientTransform="matrix(1 0 0 -1 0 190)">
	<stop  offset="0" style="stop-color:#C1272D"/>
	<stop  offset="1" style="stop-color:#ED3132"/>
</linearGradient>
<polygon class="st1" points="340.5,72.5 340.5,86.8 340.5,96.5 334.3,100.5 326.5,100.5 321.7,99.4 321,95.1 321.6,86.2 321.9,77.9 
	321.7,71.1 322.2,67 323.3,68.1 325.5,70.5 330.7,71.9 336.5,72.1 339.1,71.8 339.8,71.3 "/>
<g>
	<g>
		<path class="st2" d="M83.9,146.9c1.7-0.1,3.3-0.1,5-0.2"/>
		<path class="st3" d="M98,146.5c10.7-0.1,21.4,0.4,32,1.3"/>
		<path class="st2" d="M134.6,148.2c1.7,0.2,3.3,0.3,5,0.5c-2.7-1.1-5.1-3-6.6-5.5c1.4,2.8,3.3,5.4,5.7,7.4c-1.3,1-2.7,2-4,2.9"/>
		<path class="st2" d="M134.5,153.6c-1.3,1-2.7,2-4,2.9"/>
	</g>
</g>
<g>
	<g>
		<path class="st2" d="M100.2,73.7c1.1,1.3,2.2,2.5,3.3,3.8"/>
		<path class="st4" d="M109.3,84.2c10.8,12.2,22,24.1,33.5,35.6"/>
		<path class="st2" d="M145.9,122.9c1.2,1.2,2.4,2.3,3.6,3.5c-0.9-3.2-1.8-6.4-2.7-9.6c0.3,1.6,0.6,3.3,1,4.9"/>
		<path class="st2" d="M147.7,121.9c0.3,1.6,0.6,3.3,1,4.9c-1.6-0.3-3.3-0.5-4.9-0.8"/>
		<path class="st2" d="M141.8,125.6c-1.6-0.3-3.3-0.5-4.9-0.8"/>
	</g>
</g>
<radialGradient id="SVGID_2_" cx="204.15" cy="43.7604" r="19.6217" gradientTransform="matrix(1 0 0 -1 0 190)" gradientUnits="userSpaceOnUse">
	<stop  offset="0" style="stop-color:#B3B3B3"/>
	<stop  offset="0.8464" style="stop-color:#808080"/>
</radialGradient>
<path class="st5" d="M184.4,142.5c0.1-1.9,0.2-3.8,0.3-5.6c2.8,0.7,5.5,1.5,8.3,2.2c0-1.6,1-3.1,2.4-3.9c-1.5-2-2.6-4.3-3.3-6.7
	c2.2-0.6,4.4-1.1,6.5-1.7c0.7,2.3,1.4,4.6,2.2,6.9c1.8-0.5,3.8-0.4,5.5,0.2c0.3-2.3,1.1-4.5,2.3-6.5c1.8,0.5,3.6,0.9,5.4,1.4
	c-0.9,2.1-1.9,4.1-2.8,6.2c1.8,0.7,3.3,2,4.2,3.7c2-0.7,3.9-1.9,5.4-3.3c1,2,2.1,4,3.1,6c-2,1.6-4.3,2.7-6.8,3.3
	c0.3,1.9,0.2,3.8-0.4,5.6c1.8,0.5,3.5,1,5.3,1.5c-0.9,2.1-1.9,4.2-2.8,6.3c-1.7-0.4-3.4-0.9-5.1-1.3c-1.4,1.6-3.5,2.6-5.7,2.6
	c-0.5,2.2-1,4.4-1.5,6.5c-1.7-0.4-3.3-0.7-5-1.1c0.6-2.2,1.1-4.4,1.7-6.6c-1.8-0.3-3.6-1.3-4.8-2.7c-1.7,1.9-3.4,3.8-5,5.7
	c-1-1.3-1.9-2.5-2.9-3.8c1.4-1.4,2.7-2.7,4.1-4.1c-1-1.3-1.6-3-1.6-4.7c-1.8,1.1-3.8,1.8-5.9,2.2c-0.2-1.1-0.4-2.2-0.6-3.4
	c2.1-0.7,4.3-0.9,6.5-0.5c-0.9-0.2-0.7-3.5-1.7-4C189.9,142,186.2,142.6,184.4,142.5z"/>
<path class="st6" d="M12.9,29.6c-0.1,15.1-0.2,30.3-0.4,45.4c27.2-2.7,54.8-2.2,81.9,1.6c1.1-16.9,3.9-33.7,8.6-50
	c-29.6-2.3-59.2-4.6-88.9-6.8"/>
<path class="st7" d="M19.7,22.2c-0.3,0.5-0.6,1.1-0.7,1.7s0.3,1.3,0.8,1.5s1.2-0.1,1.4-0.7c0.2-0.5,0.1-1.2-0.3-1.6s-1-0.6-1.6-0.4"
	/>
<path class="st8" d="M24.4,25.9c0.4,0.4,0.9,0.5,1.4,0.4s0.9-0.6,1.1-1.1C27.8,22,22,23.5,24.4,25.9z"/>
<path class="st9" d="M29.3,24c-0.4,0.4-0.7,0.9-0.8,1.4c0,0.6,0.2,1.1,0.7,1.4c0.6,0.3,1.3,0,1.6-0.5s0.2-1.2-0.1-1.7
	c-0.4-0.5-1-0.7-1.7-0.6"/>
<path class="st6" d="M16.6,29.9c14.5-1.1,29,2,43.2,5c11.9,2.6,24.3,2.1,36.5,2.5"/>
<path class="st6" d="M34.1,28.6c-0.2-1.6,0-3.3,0.6-4.8c4.7,0.7,9.4,1.5,14.1,2.2c-0.8,1.7-1.4,3.5-1.8,5.4"/>
<path class="st6" d="M60.1,33.8c-0.1-2-0.1-4.1,0.1-6.1c-3.4-0.4-6.7-0.8-10.1-1.2"/>
<path class="st6" d="M69.8,34.9c0-2.2-0.1-4.4-0.1-6.6c-2.8,0.2-5.6,0-8.4-0.4"/>
<path class="st10" d="M36.3,47.4c-1-2.9-1.4-6-1.2-9c-2.6,0.2-9.5-0.5-11.5,1.2c-1.7,1.4-1.2,5.5-1.1,7.5
	C23.9,47.2,36.1,46.6,36.3,47.4z"/>
<path class="st6" d="M53.8,40.9c-4-0.1-7.9-0.1-11.9-0.2C45.8,40.7,49.8,40.9,53.8,40.9z"/>
<path class="st6" d="M42.7,44c4.8,0.1,9.7,0.1,14.5,0.2"/>
<path class="st6" d="M42.5,47.5c3.7,0.1,7.4,0.1,11,0.2"/>
<path class="st11" d="M60.2,67.1c7.5,1.2,14.9,2.3,22.4,3.5c-1.3-5.5-1-11.4,0.9-16.8c-5.2-1.1-10.5-1.6-15.9-1.6
	c-1.6,0-4.3-0.4-5.6,0.9c-1.3,1.3-0.7,3.8-0.8,5.4C61.2,59.3,60.6,67.2,60.2,67.1z"/>
<path class="st6" d="M27.2,54.9c9.1-0.4,18.1-0.3,27.2,0.5"/>
<path class="st6" d="M25.6,59c10.5-0.1,21,0.5,31.5,1.7"/>
<path class="st6" d="M27.2,63.5c9.1-0.3,18.1,0.3,27.1,1.8"/>
<path class="st6" d="M40.7,145.6c-0.1,1.7,0,3.5,1.3,4.7c1,0.8,2.3,1,3.6,1.2c9.1,1.3,18.3,1.7,27.4,1.4
	c-2.9-14.5-3.6-29.3-2.1-43.9c-9.4-0.2-18.9-1.1-28.2-2.7C41,119.3,41.2,132.5,40.7,145.6z"/>
<path class="st11" d="M46.5,119.8c4.5,0.3,8.9,0.6,13.4,0.9c0.4,0,0.8,0,1-0.3c0.2-0.2,0.2-0.5,0.1-0.8c-0.2-2.3-0.4-4.6-0.7-6.9
	c0,0.1-10.3-0.2-11.2-0.1C45.2,113,46.5,116.4,46.5,119.8z"/>
<path class="st6" d="M47,124.2c6.2-0.4,12.5-0.7,18.7-1.1"/>
<path class="st6" d="M45.2,128.2c5.4,0,10.7,0,16.1,0"/>
<path class="st12" d="M66.2,148.2c0.2-3.8,0.1-7.6-0.2-11.3c0-0.3-7.1-1-7.7-1c-0.3,2.5-0.1,5.3-0.1,7.8c0,2.4-0.4,2.9,1.8,3.8
	C61.8,148.3,64.3,148.2,66.2,148.2z"/>
<path class="st6" d="M44.4,139c3.9,0.9,8,0.9,11.9,0"/>
<path class="st6" d="M44.4,143.1c3.1-0.1,6.2-0.2,9.4-0.3"/>
<path class="st6" d="M45.7,134.8c3.4,0.1,6.8,0.2,10.1,0.3"/>
<path class="st6" d="M37.3,158.8c12.5,0.6,24.9,1.8,37.3,3.5c0.2-17.8,0.4-35.7,0.6-53.5c0-0.7,0-1.5-0.4-2.1
	c-0.6-0.8-1.7-1-2.7-1.2c-5.7-0.7-11.5-1.3-17.3-1.7c-3.2-0.2-12.4-2.3-14.4,0.5c-1.1,1.5-0.6,5.2-0.6,6.9c-0.2,3-0.3,6-0.5,9.1
	c-0.3,6-0.6,12.1-0.9,18.1C38,145.2,37.7,152,37.3,158.8z"/>
<path class="st6" d="M56.7,155.4c-0.7-0.4-1.6,0.1-1.9,0.8s0.1,1.6,0.7,2.1c0.6,0.5,1.4,0.6,2.2,0.6c1.1,0,2.4-0.5,2.7-1.6
	c0.3-1-0.5-2.1-1.5-2.5s-2.1-0.3-3.1-0.3"/>
<radialGradient id="SVGID_3_" cx="211.3114" cy="117.5988" r="42.807" gradientTransform="matrix(1 0 0 -1 0 190)" gradientUnits="userSpaceOnUse">
	<stop  offset="0" style="stop-color:#3FA9F5"/>
	<stop  offset="3.075397e-02" style="stop-color:#80C6ED"/>
	<stop  offset="0.8464" style="stop-color:#B6E4FA"/>
</radialGradient>
<path class="st13" d="M207.2,52.4c-1.4-2.3-2.9-4.6-5.1-6.3c-2.2-1.8-5.3-3-8.2-2.5s-5.5,3-5,5.5c-3.4-1.7-7.1-3.1-11-3.3
	s-8.1,1.1-10.4,3.8c-2.3,2.7-2.1,7,1,9.1c-2.1-2-6.3-1.2-7.9,1.1c-1.6,2.3-0.9,5.3,0.8,7.4c1.7,2.2,4.4,3.7,7,5.1s5.3,2.8,7.3,4.8
	c-2.6,2.5-3.3,6.1-2.5,9.3s3,6.1,5.8,8.5c6.7,5.7,16.3,8.4,25.7,9s18.9-0.8,28.2-2.2c3-0.4,6.3-1.1,8-3.2c0.9-1.1,1.3-2.7,2.8-3.1
	c2.4-0.7,4,2,6.1,3.3c2.7,1.6,6.8,0.5,8.5-2c1.7-2.4,1.3-5.6-0.1-8.1S254.4,84,252,82c4.5-2.4,9-5.4,10.5-9.8
	c1.6-4.3-1.5-10-6.7-10.3c2-6.9-2.6-14.4-9.7-18.1c-7.1-3.7-16.3-3.8-24.2-1.5S207.2,49,201.2,54"/>
<text transform="matrix(0.9975 7.109001e-02 -7.109001e-02 0.9975 29.1375 12.8255)" class="st14 st15">Web browser</text>
<text transform="matrix(0.9975 7.109001e-02 -7.109001e-02 0.9975 28.6712 170.2844)" class="st14 st15">Mobile app</text>
<text transform="matrix(1 0 0 1 196.565 76.6158)" class="st14 st15">CDN</text>
<g>
	<path class="st6" d="M320.8,97.7c0.7-7.4,1-14.9,1.1-22.3c0-4.1-1.4-10.4,4-11.9c3-0.8,17.5,2.9,14.2,7.6c-0.6,0.8-1.8,1-2.8,1
		c-3.8,0.2-8,0.2-11.5-1.6c-1.6-0.8-2.6-2.1-2.8-3.3"/>
	<path class="st6" d="M321,98.3c0.6,1.6,2.6,2,4.3,2.1c2.5,0.3,5.1,0.5,7.7,0.3s5.3-2.7,7.4-4.1c0-8.4,0.1-16.8,0.1-25.2"/>
</g>
<text transform="matrix(1 0 0 1 300.0289 112.3819)" class="st14 st15">Your app inside</text>
<text transform="matrix(1 0 0 1 300.0289 126.7819)" class="st14 st15">object storage</text>
<radialGradient id="SVGID_4_" cx="174.4742" cy="46" r="24.4806" gradientTransform="matrix(1 0 0 -1 0 190)" gradientUnits="userSpaceOnUse">
	<stop  offset="0" style="stop-color:#B3B3B3"/>
	<stop  offset="0.8464" style="stop-color:#808080"/>
</radialGradient>
<path class="st16" d="M173,120.2c2.3-0.4,4.7-0.8,7-1.2c-0.1,3.6-0.3,7.2-0.4,10.8c2-0.4,4.2,0.3,5.5,1.8c2.1-2.4,4.6-4.4,7.4-5.9
	c1.3,2.5,2.6,5.1,3.9,7.6c-2.6,1.5-5.3,3.1-7.9,4.6c1.1,2.1,1.5,4.5,1.3,6.9c2.9-0.2,5.9,0.1,8.7,1c-0.1,2.3-0.1,4.7-0.2,7
	c-2.8-0.6-5.6-1.2-8.4-1.7c-0.4,2.4-1.6,4.6-3.4,6.2c1.5,2.3,3.4,4.2,5.6,5.8c-2.2,1.8-4.3,3.7-6.5,5.5c-2.5-2-4.6-4.6-6-7.5
	c-2.2,0.9-4.7,1.3-7,1c-0.1,2.3-0.2,4.6-0.3,6.9c-2.8-0.6-5.7-1.2-8.5-1.7c0.1-2.2,0.1-4.4,0.2-6.6c-2.4-1.3-4.1-3.6-4.8-6.3
	c-2.8,0-5.7,0-8.5,0c0-2.2-0.1-4.3-0.1-6.5c2.9,0.1,5.7,0.2,8.6,0.2c-0.1-2.4,0.5-4.8,1.9-6.7c-2.8-1.5-5.6-3.1-8.4-4.6
	c1.3-1.6,2.6-3.1,3.9-4.7c2.1,1.3,4.2,2.6,6.2,3.9c1.4-1.6,3.3-2.8,5.3-3.3c-1.9-1.9-3.3-4.2-4.3-6.7c1.3-0.6,2.6-1.2,4-1.7
	c1.5,2.3,2.4,5.1,2.5,7.8c-0.1-1.1,4.1-1.8,4.5-3.2C175.1,126.8,173.4,122.4,173,120.2z"/>
<path class="st17" d="M173.2,145c-1.4,0.9-2.2,2.9-1.3,4.3c0.7,1.1,2.3,1.5,3.4,0.8c1.1-0.7,1.5-2.3,0.9-3.4
	c-0.7-1.1-2.3-1.6-3.4-0.9"/>
<path class="st17" d="M203.7,144c-1,0.6-1.5,2-0.9,2.9c0.5,0.8,1.6,1,2.4,0.6s1.1-1.6,0.6-2.4c-0.5-0.8-1.6-1.1-2.3-0.6"/>
<text transform="matrix(1 0 0 1 176.2155 181.359)" class="st14 st15">APIs</text>
<path class="st18" d="M100.2,61.4c19.7,7.3,40.1,12.5,60.8,15.5c-3.7-3.4-7.4-6.9-11.2-10.3c4.3,4.8,8.6,9.6,12.9,14.4
	c-4.5,1.1-8.7,3.1-12.3,5.9"/>
<path class="st18" d="M87.4,127.2c20.5-14.6,42.9-26.7,66.3-36c-2.8-1-5.5-2.1-8.3-3.1c3.1,0.5,6.2,1.7,8.8,3.5
	c-2.2,3.3-4.4,6.6-6.6,10"/>
<path class="st18" d="M262.5,79.4c17.3,0.9,34.4,4.1,51.4,7.2c-1.4-1.5-2.7-3-4.1-4.6c1.5,1.4,2.9,3,3.9,4.7c-2,1-4,1.9-6,2.9"/>
</svg>
